<?xml version="1.0" encoding="utf-8"?>
<!-- Generator: Adobe Illustrator 16.0.0, SVG Export Plug-In . SVG Version: 6.00 Build 0)  -->
<!DOCTYPE svg PUBLIC "-//W3C//DTD SVG 1.1//EN" "http://www.w3.org/Graphics/SVG/1.1/DTD/svg11.dtd">
<svg version="1.1" id="Layer_1" xmlns="http://www.w3.org/2000/svg" xmlns:xlink="http://www.w3.org/1999/xlink" x="0px" y="0px"
	 width="556.223px" height="131.797px" viewBox="0 0 556.223 131.797" enable-background="new 0 0 556.223 131.797"
	 xml:space="preserve">
<g>
	<g>
		<path d="M58.513,70.431c1.279,0,2.557-0.21,3.803-0.62c7.151-2.364,7.576-8.29,7.271-12.539c-0.176-2.492-3.141-4.232-7.205-4.232
			c-1.836,0-3.801,0.357-5.68,1.034c-4.013,1.443-6.578,3.342-7.619,5.645c-0.691,1.529-0.687,3.212,0.015,4.994
			C50.423,68.08,54.295,70.431,58.513,70.431L58.513,70.431z M50.302,64.388c-0.601-1.518-0.605-2.941-0.024-4.228
			c0.905-1.999,3.174-3.662,6.741-4.947c1.537-0.553,3.012-0.831,4.384-0.831c3.172,0,5.416,1.524,5.578,3.795
			c0.334,4.684,0.622,8.732-5.104,10.623c-1.098,0.363-2.226,0.549-3.351,0.549C54.832,69.349,51.451,67.308,50.302,64.388z"/>
		<path d="M14.85,93.913c0.098,0.012,0.192-0.051,0.235-0.145c0.679-1.438,1.494-2.449,3.003-3.727
			c0.055-0.047,0.088-0.115,0.088-0.191c0-2.367-0.073-2.484-1.938-3.156c-0.479-0.174-1.076-0.389-1.837-0.709
			c-1.956-0.822-3.626-2.111-4.706-3.633C9.392,81.926,8.949,81.7,8.418,81.7c-1.25,0-2.853,1.285-3.509,2.436
			c-1.796,3.129-2.826,7.596-2.826,12.25c0,4.682,1.106,6.586,3.309,10.379c0.396,0.684,0.831,1.434,1.298,2.266
			c0.045,0.082,0.131,0.129,0.218,0.129c0.034,0,0.071-0.008,0.106-0.023c0.119-0.057,0.17-0.197,0.122-0.32
			c-1.646-4.07-1.397-8.324,0.658-11.375C9.413,95.04,11.921,93.786,14.85,93.913z"/>
		<path d="M92.185,33.203c-0.122-0.058-0.263-0.005-0.324,0.113c-0.418,0.838-0.782,1.683-1.164,2.577
			c-1.658,3.854-3.369,7.838-9.668,11.238c-2.01,1.085-3.542,1.57-4.957,1.57c-1.106,0-2.093-0.294-3.239-0.636
			c-1.632-0.484-3.665-1.09-6.9-1.09c-1.312,0-2.756,0.102-4.29,0.3c-10.723,1.395-16.517,7.958-20.35,12.305
			c-0.64,0.726-1.194,1.351-1.71,1.886c-1.373,1.421-2.595,1.792-4.013,2.226c-2.182,0.661-4.654,1.415-8.38,6.11
			c-0.1,0.125-0.2,0.253-0.302,0.387c-0.083,0.103-0.065,0.255,0.035,0.339c0.045,0.041,0.103,0.062,0.16,0.062
			c0.065,0,0.131-0.028,0.177-0.075c4.375-4.521,7.313-5.05,9.674-5.476c1.551-0.279,2.891-0.521,4.137-1.872
			c4.714-5.707,8.736-9.917,17.597-12.135c1.847-0.462,3.602-0.697,5.213-0.697c3.396,0,6.133,1.041,7.712,2.93
			c0.985,1.177,1.413,2.624,1.173,3.973c-0.07,0.217-0.127,0.431-0.162,0.642c-0.022,0.127,0.06,0.25,0.184,0.281
			c0.127,0.03,0.255-0.04,0.295-0.161c0.07-0.208,0.125-0.422,0.166-0.636c0.878-2.544,4.657-5.505,8.018-7.311
			c2.936-1.583,6.307-4.681,11.048-16.534C92.365,33.395,92.307,33.256,92.185,33.203z"/>
		<path d="M24.843,95.426l-0.03-0.402l-0.346,0.207c-1.046,0.635-1.906,1.188-2.669,1.674c-1.918,1.232-2.975,1.912-3.949,1.912
			c-0.55,0-1.093-0.215-1.811-0.717l-0.295-0.205l-0.087,0.35c-0.489,1.959-0.844,3.373-2.362,4.191
			c-1.472,0.793-1.972,2.254-2.239,3.041c-0.041,0.123-0.077,0.23-0.111,0.318l-0.202,0.494l0.51-0.168
			c2.928-0.977,12.612-7.082,13.129-7.574C25.005,97.961,24.876,95.846,24.843,95.426z"/>
		<path d="M47.682,67.47c-0.07-0.069-0.179-0.091-0.27-0.051c-0.095,0.035-0.154,0.128-0.154,0.228c0,0.386,0,0.746-2.239,0.746
			c-0.13,0-0.238,0.102-0.248,0.233c-0.006,0.13,0.088,0.248,0.22,0.262c0.929,0.108,1.883,0.712,2.989,1.407
			c1.716,1.086,3.849,2.433,6.829,2.433c0.655,0,1.336-0.065,2.023-0.197c0.127-0.022,0.214-0.138,0.201-0.267
			c-0.011-0.127-0.12-0.226-0.249-0.226C52.991,72.039,50.574,70.365,47.682,67.47z"/>
		<path d="M121.776,2.63c-1.346-0.67-3.286-0.812-5.06-0.751c-0.582-0.027-1.147-0.009-1.669,0.034
			c0.949-0.275,1.952-0.412,3.899-0.552c0.125-0.008,0.222-0.108,0.23-0.23c0.008-0.125-0.075-0.236-0.195-0.261
			c-4.131-0.862-10.499,0.367-14.168,1.245c0.891-0.434,1.813-0.862,2.648-1.215c0.042-0.016,0.089-0.037,0.131-0.054
			c0.119-0.051,0.18-0.183,0.141-0.306c-0.035-0.105-0.131-0.172-0.238-0.172l0,0c-0.019,0-0.039,0.003-0.056,0.007
			c-0.468,0.108-0.942,0.214-1.423,0.309c-4.687,0.926-9.27,0.948-14.094,0.977c-3.611,0.019-7.326,0.04-11.181,0.459
			c2.933-1.213,2.835-1.607,2.791-1.79c-0.078-0.3-0.414-0.43-1.929-0.239c-0.077,0.011-0.157,0.021-0.242,0.032
			c-0.028,0.002-0.056,0.006-0.088,0.013c-4.085,0.578-10.491,3.059-13.489,4.285c0.216-0.167,0.43-0.327,0.642-0.477
			c0.741-0.475,1.425-0.859,1.942-1.06c0.047-0.011,0.102-0.026,0.144-0.036c0.001,0,0.004,0,0.006-0.002
			c0.112-0.027,0.188-0.129,0.188-0.242c0-0.018-0.002-0.039-0.006-0.06c-0.037-0.131-0.17-0.213-0.304-0.181
			c-0.002,0.002-0.002,0-0.002,0c-0.004,0.002-0.008,0.004-0.01,0.004c-0.035-0.002-0.069,0.002-0.104,0.015
			C70.259,2.39,70.238,2.4,70.217,2.408c-0.345,0.084-0.723,0.174-1.148,0.272c-2.097,0.491-5.266,1.23-9.295,2.657
			c-6.933,2.351-13.67,5.544-20.021,9.485C24.838,24.078,12.386,44.24,9.324,52.48c-3,8.079-3.761,14.646-2.151,18.516
			c-0.021,0.028-0.04,0.058-0.058,0.086c-0.09,0.136-0.183,0.271-0.269,0.413c-0.059,0.094-0.114,0.194-0.171,0.29
			c-0.078,0.137-0.162,0.274-0.24,0.416c-0.052,0.1-0.102,0.204-0.154,0.306c-0.074,0.143-0.147,0.282-0.22,0.427
			c-0.051,0.105-0.096,0.217-0.145,0.326c-0.067,0.139-0.132,0.281-0.193,0.424c-0.047,0.111-0.09,0.223-0.137,0.334
			c-0.057,0.145-0.115,0.285-0.169,0.43c-0.043,0.113-0.083,0.229-0.121,0.346c-0.051,0.139-0.104,0.283-0.15,0.426
			c-0.038,0.113-0.072,0.23-0.109,0.35c-0.043,0.139-0.088,0.281-0.129,0.422c-0.034,0.115-0.061,0.234-0.092,0.35
			c-0.04,0.141-0.079,0.279-0.113,0.42c-0.026,0.113-0.051,0.227-0.075,0.342c-0.031,0.141-0.063,0.279-0.092,0.416
			c-0.022,0.111-0.041,0.223-0.061,0.334c-0.027,0.137-0.054,0.275-0.075,0.408c-0.018,0.109-0.032,0.219-0.047,0.326
			c-0.019,0.133-0.039,0.266-0.054,0.396c-0.011,0.105-0.021,0.205-0.03,0.311c-0.013,0.115-0.027,0.236-0.036,0.35
			c-0.098,0.168-0.189,0.342-0.285,0.512c-0.114,0.201-0.231,0.398-0.34,0.604c-0.1,0.189-0.194,0.385-0.291,0.576
			c-0.101,0.197-0.205,0.391-0.298,0.594c-0.096,0.203-0.186,0.41-0.278,0.617c-0.087,0.191-0.18,0.385-0.261,0.584
			c-0.092,0.215-0.173,0.434-0.261,0.65c-0.078,0.191-0.156,0.381-0.229,0.574c-0.088,0.23-0.163,0.465-0.245,0.701
			c-0.063,0.182-0.131,0.363-0.192,0.549c-0.08,0.244-0.152,0.492-0.225,0.738c-0.051,0.176-0.109,0.352-0.159,0.529
			c-0.073,0.258-0.136,0.52-0.201,0.777c-0.044,0.17-0.091,0.336-0.131,0.506c-0.063,0.271-0.119,0.545-0.173,0.818
			c-0.035,0.158-0.071,0.318-0.104,0.479c-0.055,0.287-0.098,0.574-0.146,0.857c-0.025,0.152-0.056,0.299-0.078,0.449
			c-0.043,0.287-0.075,0.574-0.109,0.865c-0.02,0.15-0.042,0.295-0.058,0.445c-0.03,0.289-0.051,0.576-0.073,0.867
			c-0.012,0.148-0.028,0.297-0.036,0.445c-0.019,0.281-0.027,0.561-0.038,0.842c-0.003,0.156-0.016,0.313-0.018,0.467
			c-0.006,0.271-0.002,0.537,0,0.809c0.002,0.166-0.002,0.332,0.002,0.494c0.007,0.254,0.023,0.5,0.035,0.752
			c0.008,0.18,0.013,0.365,0.025,0.545c0.016,0.234,0.042,0.465,0.064,0.699c0.019,0.193,0.033,0.391,0.055,0.584
			c0.021,0.197,0.055,0.393,0.083,0.592c0.031,0.223,0.058,0.447,0.094,0.666v0.002l0.002,0.004l0,0c0,0.002,0,0.002,0,0.002
			c0.9,5.402,4.645,11.594,11.127,18.4l0.041,0.033c0.202,0.135,0.382,0.205,0.533,0.205c0.109,0,0.204-0.037,0.285-0.102
			c0.156-0.133,0.198-0.352,0.18-0.594c0.035-0.369-0.137-0.854-0.274-1.172c-1.263-2.043-2.412-4.859-2.589-7.617
			c0.004,0,0.01,0,0.016-0.002c3.415-0.588,8.705-4.428,12.206-6.969c1.485-1.076,2.655-1.926,3.182-2.164
			c0.106-0.051,0.196-0.107,0.288-0.164h0.099c0.758,0,1.545-0.324,2.459-0.703c1.203-0.498,2.564-1.063,4.271-1.063
			c1.021,0,2.034,0.199,3.102,0.607c1.834,0.699,2.637,1.221,3.283,1.637c1.134,0.734,1.817,1.178,6.253,1.732l0.063,0.008
			c5.505,0.705,6.633,2.896,7.377,4.348c0.188,0.361,0.348,0.672,0.55,0.934c0.002,0.004,0.004,0.006,0.004,0.006
			c0.1,0.129,0.282,0.375,0.538,0.721c7.695,10.369,14.888,18.383,21.37,23.816l0.074,0.061l3.269-0.125l-0.495-0.416
			c-10.766-9.02-23.289-22.982-24.359-24.357c-0.002,0-0.002,0-0.002,0c-0.176-0.229-0.329-0.525-0.504-0.867
			c-0.787-1.529-1.969-3.826-7.573-4.59c0,0-0.001,0-0.004,0c-0.01,0-0.017,0-0.025-0.002c-0.004-0.002-0.011-0.002-0.015-0.002
			c-0.006,0-0.012,0-0.019-0.002c-0.014-0.002-0.026-0.004-0.039-0.008c-0.008,0-0.014,0-0.022,0c-0.006,0-0.012-0.002-0.021-0.002
			l0,0c-0.008-0.002-0.015-0.002-0.022-0.004c-0.007,0-0.013,0-0.021-0.004l-0.064-0.006c-4.148-0.521-4.836-1.064-5.789-1.82
			c-0.645-0.512-1.444-1.145-3.452-1.912c-1.375-0.525-2.637-0.781-3.858-0.781c-1.424,0-2.529,0.346-3.503,0.654
			c-0.618,0.195-1.166,0.361-1.7,0.412c0.092-0.283,0.165-0.566,0.232-0.832c0.137-0.557,0.265-1.082,0.532-1.277
			c0.324-0.234,0.664-0.5,1.027-0.783c1.7-1.328,4.028-3.145,8.364-4.771c4.928-1.85,17.75-6.922,20.427-8.367
			c0.469-0.221,0.771-0.385,0.928-0.5c0.101-0.076,0.194-0.158,0.287-0.246c0.028-0.025,0.051-0.057,0.078-0.084
			c0.057-0.063,0.115-0.123,0.167-0.186c0.027-0.037,0.049-0.072,0.074-0.107c0.043-0.059,0.086-0.121,0.123-0.182
			c0.024-0.039,0.041-0.078,0.063-0.119c0.032-0.059,0.063-0.121,0.091-0.182c0.015-0.041,0.028-0.08,0.043-0.121
			c0.022-0.061,0.042-0.119,0.059-0.184c0.008-0.039,0.014-0.08,0.022-0.121c0.01-0.059,0.021-0.119,0.025-0.176
			c0.001-0.043,0-0.084,0-0.125c-0.002-0.055-0.002-0.107-0.011-0.16c-0.006-0.043-0.016-0.084-0.026-0.123
			c-0.006-0.033-0.008-0.068-0.02-0.1c-0.006-0.02-0.017-0.035-0.025-0.055c-0.004-0.012-0.007-0.025-0.012-0.039
			c-0.012-0.029-0.03-0.064-0.05-0.104c-0.011-0.014-0.019-0.025-0.029-0.039c-0.021-0.037-0.049-0.076-0.083-0.113
			c-0.022-0.023-0.045-0.049-0.067-0.07c-0.022-0.025-0.054-0.047-0.082-0.07c-0.026-0.02-0.05-0.039-0.076-0.057
			c-0.037-0.025-0.079-0.045-0.122-0.066c-0.024-0.012-0.048-0.023-0.073-0.033c-0.05-0.021-0.102-0.037-0.157-0.051
			c-0.028-0.008-0.057-0.016-0.084-0.021c-0.054-0.01-0.108-0.021-0.17-0.023c-0.044-0.006-0.091-0.006-0.139-0.01
			c-0.049-0.002-0.097-0.004-0.15,0c-0.112,0.006-0.225,0.016-0.346,0.037c-1.033,0.189-1.837,0.424-2.549,0.631
			c-0.536,0.158-1.002,0.293-1.425,0.361c-0.254,0.045-0.897,0.078-1.713,0.121c-2.281,0.117-6.101,0.314-8.43,1.049
			c-1.078,0.342-1.958,0.381-3.075,0.434c-2.075,0.096-4.922,0.227-11.175,2.381c-0.156,0.053-0.311,0.096-0.466,0.131
			c-0.051,0.012-0.098,0.02-0.146,0.031c-0.102,0.023-0.206,0.047-0.31,0.061c-0.069,0.012-0.136,0.02-0.208,0.029
			c-0.075,0.01-0.149,0.018-0.226,0.025c-0.086,0.01-0.169,0.014-0.25,0.018c-0.057,0.002-0.112,0.006-0.167,0.006
			c-0.085,0.002-0.169,0.002-0.252,0c-0.08-0.002-0.161-0.006-0.241-0.01c-0.132-0.012-0.26-0.023-0.388-0.039
			c-0.068-0.01-0.139-0.018-0.208-0.029c-0.082-0.014-0.163-0.031-0.243-0.049c-0.061-0.012-0.12-0.027-0.179-0.041
			c-0.074-0.016-0.151-0.033-0.224-0.055c-0.112-0.035-0.223-0.066-0.333-0.104c-0.061-0.02-0.124-0.045-0.187-0.064
			c-0.068-0.025-0.137-0.051-0.202-0.078c-0.054-0.021-0.106-0.041-0.161-0.064c-0.109-0.045-0.218-0.092-0.322-0.139
			c-0.034-0.016-0.063-0.029-0.095-0.043c-0.091-0.043-0.178-0.084-0.265-0.129c-0.034-0.014-0.063-0.029-0.095-0.047
			c-0.104-0.051-0.206-0.102-0.304-0.148l-0.131-0.066c-0.004-0.004-0.008-0.006-0.013-0.006c-0.047-0.023-0.101-0.031-0.151-0.023
			c-0.033,0.008-0.062,0.029-0.09,0.045c-0.015,0.012-0.033,0.014-0.047,0.025c-0.016,0.016-0.034,0.037-0.052,0.053
			c-0.066,0.066-0.131,0.133-0.201,0.201c-0.004,0.002-0.006,0.004-0.009,0.006c-0.167,0.17-0.344,0.338-0.525,0.504
			c-0.035,0.033-0.071,0.061-0.106,0.096c-0.059,0.049-0.117,0.102-0.177,0.152c-0.064,0.057-0.132,0.105-0.199,0.162
			c-0.028,0.021-0.059,0.045-0.086,0.07c-0.09,0.066-0.183,0.131-0.272,0.195c-0.009,0.004-0.015,0.006-0.021,0.012
			c-0.194,0.131-0.392,0.238-0.588,0.316c-0.083,0.033-0.142,0.109-0.153,0.199c-0.011,0.092,0.026,0.178,0.102,0.23
			c1.735,1.266,3.417,2.688,2.728,3.65c-0.045,0.063-0.052,0.143-0.031,0.217c-0.293,0.072-0.628,0.178-1.031,0.346
			c-1.435,0.588-3.206,2.506-4.766,4.197c-0.797,0.863-1.547,1.674-2.136,2.18c-0.284,0.244-0.504,0.52-0.681,0.83
			c-0.025,0.047-0.054,0.092-0.077,0.139c-0.031,0.063-0.059,0.131-0.088,0.197c-0.025,0.063-0.049,0.121-0.073,0.186
			c-0.008,0.025-0.022,0.049-0.03,0.08l0.004,0.002c-0.136,0.412-0.208,0.832-0.273,1.25c-0.157,0.957-0.314,1.941-1.258,2.9
			c-0.05,0.029-0.096,0.064-0.148,0.096c-2.051,1.223-3.366,2.896-3.898,4.986c-0.684,2.689,0.016,6.145,1.859,9.281
			c0.113,0.234,0.23,0.463,0.346,0.68c0.01,0.023,0.022,0.051,0.032,0.078l-0.527-0.553c-2.892-3.021-7.262-7.584-9.188-13.16
			c-0.343-1.01-0.598-2-0.756-2.949l-0.03,0.004c-0.022-0.145-0.04-0.291-0.06-0.439C-0.005,92.698,2.991,83,4.914,80.733
			c0.283-0.332,0.456-0.396,0.527-0.406l0.213,0.076c0.028,0.01,0.057,0.014,0.084,0.014c0.021,0,0.042-0.014,0.064-0.02
			c0.923,0.219,1.562,0.211,2.141,0.199c0.64-0.016,1.189-0.021,2.027,0.291c0.413,0.154,1.013,0.629,1.707,1.174
			c2.446,1.928,6.542,5.148,10.766,0.719c1.822-2.732,0.059-4.361-1.5-5.799c-0.261-0.238-0.523-0.482-0.767-0.727
			c-0.944-0.943-2.364-2.523-3.617-3.916c-1.054-1.168-1.961-2.177-2.352-2.551c-0.813-0.773-3.713-1.194-4.468-1.293
			c-1.47-3.607-0.704-9.52,2.292-17.582c3.492-9.406,16.238-27.786,30.141-36.414c5.979-3.711,11.956-6.635,17.766-8.693
			c3.497-1.185,6.428-1.947,8.469-2.446c-0.08,0.055-0.162,0.106-0.24,0.161c-1.736,1.116-3.595,2.597-3.884,2.829
			c-0.099,0.079-0.122,0.217-0.055,0.325c0.064,0.107,0.202,0.145,0.315,0.092c0.116-0.055,11.407-5.369,16.809-6.141
			c0.026-0.004,0.053-0.009,0.08-0.013c0.044-0.003,0.087-0.01,0.128-0.016c0.401-0.051,0.67-0.074,0.852-0.08
			c-0.936,0.53-3.849,1.631-6.563,2.547c-0.124,0.041-0.191,0.166-0.163,0.291c0.033,0.125,0.15,0.209,0.277,0.188
			c4.424-0.646,9.255-0.819,13.926-0.981c5.182-0.181,10.514-0.373,15.302-1.219c-1.894,0.848-3.253,1.528-3.271,1.538
			c-0.083,0.042-0.134,0.123-0.139,0.211c-0.895,0.466-1.489,0.791-1.503,0.798c-0.114,0.063-0.161,0.198-0.11,0.318
			c0.049,0.118,0.184,0.179,0.306,0.136c0.11-0.036,9.513-3.179,15.807-3.208c-1.336,0.21-2.107,0.518-3.605,1.12l-0.299,0.118
			c-0.122,0.052-0.186,0.186-0.142,0.313c0.036,0.102,0.132,0.168,0.235,0.168c0.015,0,0.033-0.002,0.047-0.004
			c0.038-0.009,1.988-0.392,4.2-0.466c0.793,0.036,1.608,0.159,2.363,0.429c-0.79,0.252-1.216,0.416-1.548,0.543
			c-0.415,0.158-0.645,0.25-1.255,0.371c-2.119,0.424-2.9,1.362-2.931,1.402c-0.065,0.078-0.076,0.187-0.027,0.275
			c0.045,0.08,0.129,0.129,0.219,0.129l0,0c0.01,0,0.019,0,0.03-0.002l3.11-0.354c-0.697,0.643-1.737,1.709-1.803,2.421
			c-0.02,0.193,0.03,0.368,0.141,0.501l0.192-0.162l0.375-0.144c0.016,0.024,0.028,0.047,0.046,0.069l0.382-0.319
			c-0.306-0.368,0.732-1.702,1.6-2.523c0.079-0.073,0.101-0.187,0.056-0.285c-0.042-0.089-0.129-0.145-0.224-0.145
			c-0.014,0-0.019,0-0.032,0.002l-3.026,0.344c0.421-0.251,1.063-0.537,1.985-0.725c0.34-0.065,0.708-0.126,1.115-0.189
			c1.085-0.172,2.437-0.388,4.252-0.934c0.097-0.028,0.167-0.115,0.178-0.216C121.921,2.773,121.867,2.675,121.776,2.63z
			 M9.915,106.03c0.5-1.965,1.676-3.486,3.497-4.527l0.05-0.039c1.078-1.08,1.26-2.203,1.42-3.197
			c0.064-0.41,0.131-0.797,0.249-1.158c0.458-0.787,0.979-0.908,1.83-1.1c0.206-0.049,0.421-0.098,0.655-0.158l0.078-0.035
			c8.191-5.574,18.49-8.891,26.01-11.313c3.017-0.977,5.626-1.816,7.316-2.568c0.716-0.031,1.435-0.045,2.161-0.035
			c0.453,0,0.794-0.275,1.191-0.59c0.495-0.398,1.112-0.893,2.196-1.029l-0.061-0.492c-1.226,0.154-1.931,0.719-2.446,1.133
			c-0.351,0.279-0.601,0.482-0.874,0.482c-0.747-0.01-1.489,0.008-2.222,0.041l-0.003-0.01c-0.12,0.008-0.239,0.018-0.36,0.021
			c-0.131,0.01-0.262,0.018-0.395,0.025c-4.741,0.291-9.144,1.352-12.556,2.41c-0.002,0-0.004,0.002-0.005,0.002
			c-0.397,0.125-0.782,0.25-1.155,0.371c-0.022,0.008-0.044,0.016-0.067,0.023c-0.353,0.115-0.693,0.23-1.021,0.344
			c-0.021,0.008-0.043,0.016-0.063,0.021c-1.403,0.492-2.541,0.938-3.318,1.244l-0.308,0.119c-1.525,0.598-2.435,1.133-3.164,1.561
			c-0.66,0.387-1.179,0.695-1.915,0.918l-0.003,0.002c-0.661,0.203-1.097,0.186-1.56,0.166c0,0-0.002,0-0.003,0
			c-0.098-0.002-0.198-0.006-0.302-0.01c0.533-1.244-1.202-2.611-2.774-3.762c0.375-0.266,0.633-0.652,0.889-1.033
			c0.149-0.223,0.304-0.455,0.481-0.658c0.182,0.1,0.376,0.211,0.583,0.328c0.974,0.568,2.186,1.277,3.721,1.277
			c0.513,0,1.039-0.08,1.564-0.246c6.208-2.139,8.995-2.354,11.031-2.506c1.136-0.09,2.036-0.16,3.168-0.516
			c2.38-0.75,6.445-1.164,8.629-1.385c0.663-0.066,1.142-0.117,1.398-0.154c0.018-0.006,0.039-0.008,0.052-0.01h0.002
			c0,0,0,0,0.003,0c0.015-0.004,0.03-0.008,0.044-0.01c0.1-0.018,0.202-0.035,0.303-0.061c0.313-0.063,0.617-0.131,0.947-0.211
			c0.56-0.139,1.194-0.297,2.187-0.477c0.131-0.023,0.253-0.033,0.366-0.033c0.273,0,0.623,0.07,0.739,0.414
			c0.137,0.41-0.098,1.133-0.803,1.662c-0.046,0.037-0.148,0.104-0.355,0.217c-0.715,0.332-1.792,0.783-3.088,1.307
			c-0.066,0.025-0.132,0.051-0.201,0.08c-0.034,0.014-0.07,0.025-0.103,0.043c-3.144,1.256-7.463,2.887-11.114,4.25
			c-1.183,0.443-2.305,0.857-3.306,1.234c-1.09,0.404-2.056,0.766-2.817,1.049c-4.664,1.752-7.139,3.605-8.944,4.961
			c-0.255,0.191-0.496,0.373-0.726,0.539c-0.436,0.316-0.507,1.004-0.59,1.801c-0.109,1.037-0.231,2.213-1.19,2.65
			c-0.523,0.238-1.589,0.916-2.938,1.775c-3.313,2.113-8.82,5.619-12.25,6.287C9.719,106.979,9.795,106.497,9.915,106.03z
			 M9.652,68.987c1.069,0.138,3.586,0.57,4.209,1.161c0.378,0.359,1.28,1.362,2.325,2.524c1.258,1.396,2.682,2.98,3.634,3.934
			c0.252,0.25,0.519,0.496,0.784,0.742c1.614,1.49,3.01,2.777,1.449,5.123c-3.884,4.07-7.606,1.139-10.069-0.799
			c-0.759-0.596-1.358-1.068-1.844-1.25c-0.755-0.281-1.311-0.328-1.848-0.328c-0.122,0-0.242,0.004-0.362,0.006
			c-0.58,0.01-1.218,0.023-2.176-0.225c-0.106-0.117-0.189-0.34-0.228-0.652c-0.228-1.951,1.178-6.6,3.098-9.15L9.652,68.987z"/>
		<path d="M61.074,63.054c0.371-0.576,0.473-1.266,0.29-1.939c-0.064-0.228-0.166-0.44-0.281-0.637
			c-0.186,0.135-0.411,0.214-0.661,0.214c-0.606,0-1.102-0.47-1.102-1.048c0-0.126,0.029-0.247,0.072-0.358
			c-0.204-0.044-0.412-0.075-0.628-0.075c-0.296,0-0.604,0.041-0.908,0.125c-1.617,0.443-2.473,1.765-2.076,3.215
			c0.318,1.156,1.314,1.904,2.543,1.904c0.291,0,0.594-0.042,0.901-0.125C60.032,64.107,60.689,63.656,61.074,63.054z"/>
		<path d="M16.493,81.797c0.267,0,0.534-0.02,0.792-0.057c0.747-0.113,3.018-0.445,2.81-1.854c-0.042-0.285-0.206-0.623-0.748-0.623
			c-0.275,0-0.624,0.082-1.063,0.186c-0.402,0.094-0.859,0.201-1.397,0.279c-0.246,0.037-0.503,0.055-0.792,0.055
			c-0.381,0-0.744-0.029-1.06-0.057c-0.255-0.021-0.477-0.041-0.657-0.041c-0.243,0-0.534,0.029-0.667,0.26
			c-0.14,0.242-0.005,0.529,0.129,0.754C14.244,81.385,15.235,81.797,16.493,81.797z"/>
	</g>
	<g>
		<path d="M158.008,38.858c0-1.772,0-6.263-6.499-6.263h-4.727v-4.136h38.167c24.578,0,28.95,11.935,28.95,19.379
			c0,11.462-9.217,17.134-19.143,20.679l3.545,0.709c11.698,2.363,19.852,9.335,19.852,20.561c0,20.324-19.615,24.933-35.686,24.933
			h-35.686v-4.136h4.845c3.781,0,6.381-1.536,6.381-5.908V38.858z M170.061,32.595c-5.436,0-6.026,3.427-6.026,6.263v28.359h14.416
			c12.289,0,29.423-4.727,29.423-19.379c0-7.563-5.436-15.243-22.924-15.243H170.061z M164.034,71.353v33.322
			c0,4.49,1.418,5.908,6.499,5.908h11.935c23.16,0,29.659-11.226,29.659-20.797c0-4.727-1.536-8.508-4.727-11.344
			c-5.908-5.908-20.088-7.09-24.46-7.09H164.034z"/>
		<path d="M273.572,107.157c0,2.954,2.836,3.899,5.199,3.899h5.319v3.663h-16.543v-9.099c-6.145,6.499-12.053,9.926-19.261,9.926
			c-7.917,0-14.062-4.608-14.062-15.834V70.408c0-1.063-0.354-1.891-1.063-2.363c-0.709-0.591-3.309-0.827-8.035-0.827v-3.663
			c4.254,0,9.335-1.654,15.125-4.727v37.104c0,5.672,0.709,15.243,10.044,15.243c4.136,0,8.745-2.245,13.944-6.735l3.309-3.781
			v-30.25c0-1.654-0.828-2.6-2.363-2.954l-6.736-0.236v-3.663c4.254,0,9.336-1.654,15.125-4.727V107.157z"/>
		<path d="M297.678,111.056h13.471c8.98,0,13.354-3.072,20.68-15.007h3.072l-7.326,18.67h-38.641v-2.127l37.104-49.156h-14.889
			c-8.152,0-11.107,3.19-16.188,10.635h-2.955l6.381-14.298h36.514v2.009L297.678,111.056z"/>
		<path d="M349.553,111.056h13.471c8.98,0,13.352-3.072,20.678-15.007h3.072l-7.326,18.67h-38.639v-2.127l37.104-49.156h-14.889
			c-8.154,0-11.107,3.19-16.189,10.635h-2.953l6.381-14.298h36.512v2.009L349.553,111.056z"/>
		<path d="M427.778,110.938c-5.199,4.018-11.344,6.145-18.551,6.145c-5.318,0-14.535-2.718-14.535-14.18
			c0-4.727,1.891-8.626,6.027-11.816c5.436-4.136,15.479-7.09,30.367-9.099v-7.799c0-7.917-7.443-12.998-14.297-12.998
			c-8.508,0-12.525,5.436-12.525,7.917v1.418c0.236,1.3,0.709,4.727-3.428,4.727c-2.953,0-3.662-2.245-3.662-3.663
			c0-7.326,8.152-14.062,19.615-14.062c12.525,0,20.324,8.508,20.324,16.661v27.414c0,4.372,0,11.816,2.48,11.816
			c1.064,0,2.482-2.245,4.018-6.499l3.309,1.772c-2.363,7.563-5.553,8.39-8.625,8.39c-6.264,0-6.736-5.79-7.09-9.808
			L427.778,110.938z M431.086,85.769c-11.816,2.009-20.205,4.727-25.168,8.153c-3.545,2.245-5.199,5.317-5.199,8.98
			c0,6.381,5.672,10.517,10.871,10.517c7.443,0,18.314-5.317,19.496-13.943V85.769z"/>
		<path d="M459.92,70.053c0-2.481-1.773-3.19-9.453-3.19V63.2c4.371,0,9.57-1.536,15.479-4.372v11.58
			c2.127-2.954,8.744-11.58,18.67-11.58c4.018,0,9.1,0.827,9.1,6.735c0,2.245-1.654,3.545-4.018,3.545
			c-2.01,0-3.545-0.827-4.727-2.363s-2.719-2.127-4.846-2.127c-5.316,0-10.398,4.845-14.18,13.353v28.241
			c0,3.781,0.945,4.845,4.373,4.845h4.371v3.663h-23.986v-3.663c6.854,0,9.217,0,9.217-4.845V70.053z"/>
		<path d="M545.708,104.557c0,4.963,2.6,6.499,5.672,6.499h4.844v3.663H539.68v-7.563c-4.49,5.79-9.098,8.39-17.961,8.39
			c-13.943,0-23.514-11.935-23.514-29.659c0-14.298,10.871-27.06,25.523-27.06c6.381,0,11.697,2.127,15.951,6.499V39.449
			c0-2.954-0.945-3.309-9.098-3.309v-3.663c4.254,0,9.334-1.654,15.125-4.845V104.557z M539.68,71.944
			c-1.299-2.954-7.326-8.98-15.951-8.98c-8.98,0-18.906,7.681-18.906,22.924c0,10.989,4.844,25.523,18.434,25.523
			c8.625,0,14.889-6.499,16.424-12.998V71.944z"/>
	</g>
</g>
</svg>
