<?xml version="1.0" encoding="utf-8"?>
<!-- Generator: Adobe Illustrator 16.0.0, SVG Export Plug-In . SVG Version: 6.00 Build 0)  -->
<!DOCTYPE svg PUBLIC "-//W3C//DTD SVG 1.1//EN" "http://www.w3.org/Graphics/SVG/1.1/DTD/svg11.dtd">
<svg version="1.1" id="Layer_1" xmlns="http://www.w3.org/2000/svg" xmlns:xlink="http://www.w3.org/1999/xlink" x="0px" y="0px"
	 width="228.529px" height="224.268px" viewBox="0 22 228.529 224.268" enable-background="new 0 22 228.529 224.268"
	 xml:space="preserve">
<g>
	<path fill="#FFFFFF" d="M16.313,117.049c-1.08-0.635-4.283,2.281-6.556,4.629c-10.25,10.581-12.727,28.575-5.99,41.522
		c1.745,3.354,3.353,6.758,4.24,10.427c0.497,2.053,1.243,4.44-0.187,6.182c-3.51,4.264-0.779,6.489,2.521,8.579
		c8.729,5.535,17.689,10.294,28.628,9.74c4.736-0.24,9.001,1.508,13.068,4.042c7.959,4.961,16.056,9.72,24.251,14.291
		c3.063,1.706,5.184,4.049,6.812,6.911c3.562,6.264,7.448,12.343,10.438,18.922c2.269,4.99,5.319,5.272,8.796,0.892
		c1.319-1.664,2.295-3.584,3.464-5.372c1.476-2.253,2.173-4.052-0.852-6.021c-2.283-1.489-2.278-4.578-2.703-7.146
		c-1.4-8.435-0.868-16.933-0.843-25.416c0.003-1.597,0.495-3.249-0.361-4.841c-1.775-0.179-1.677,1.345-1.872,2.232
		c-0.77,3.507-1.313,7.06-2.014,10.582c-0.341,1.698,0.479,4.142-1.403,4.896c-2.133,0.858-3.396-1.525-4.901-2.662
		c-3.685-2.778-7.206-5.768-10.912-8.518c-7.553-5.611-15.246-10.976-24.107-14.534c-4.961-1.994-6.793-6.579-7.974-11.216
		c-4.006-15.723-4.476-31.602-1.629-47.578c1.83-10.286,3.606-20.582,5.297-30.892c0.275-1.691,1.434-5.064-0.201-5.555
		c-1.726-0.367-2.605,3.918-3.028,6.042c-1.854,9.29-3.639,18.584-6.547,27.63c-0.449,1.396-0.972,2.772-1.504,4.144
		c-1.371,3.535-3.243,3.8-5.573,0.787c-5.731-7.409-9.817-15.58-10.73-24.917c-1.407-22.563,6.621-30.769,4.755-31.652
		c-4.645,0.636-6.553,3.493-8.091,6.378c-5.513,10.334-7.531,20.95-3.746,32.545c0.498,1.527,1.383,4.64,2.435,6.803
		c7.506,18.31,11.137,37.79,17.555,56.438c0.729,2.114,2.144,4.956-0.497,6.75c-2.503,1.697-5.108,0.367-7.42-0.997
		c-1.266-0.753-2.473-1.646-3.568-2.622c-9.026-8.024-14.575-18.138-17.188-29.653c-1.648-7.265-1.166-14.482,3.446-21.082
		C14.222,124.018,18.24,118.293,16.313,117.049z"/>
</g>
<g>
	<path fill="#FFFFFF" d="M212.216,116.068c1.078-0.632,4.28,2.283,6.555,4.629c10.251,10.583,12.728,28.575,5.99,41.524
		c-1.744,3.356-3.354,6.759-4.24,10.428c-0.499,2.053-1.243,4.441,0.188,6.181c3.508,4.266,0.778,6.487-2.521,8.582
		c-8.729,5.532-17.69,10.292-28.631,9.737c-4.736-0.241-9,1.507-13.066,4.044c-7.96,4.958-16.056,9.718-24.254,14.287
		c-3.063,1.709-5.18,4.052-6.806,6.914c-3.563,6.261-7.452,12.343-10.44,18.922c-2.27,4.988-5.32,5.271-8.797,0.892
		c-1.32-1.665-2.294-3.584-3.463-5.37c-1.475-2.256-2.174-4.056,0.852-6.022c2.281-1.491,2.277-4.578,2.703-7.146
		c1.4-8.434,0.868-16.933,0.842-25.416c-0.002-1.599-0.491-3.248,0.361-4.841c1.775-0.18,1.678,1.345,1.873,2.231
		c0.771,3.507,1.315,7.061,2.015,10.58c0.339,1.7-0.479,4.146,1.402,4.899c2.133,0.858,3.396-1.526,4.899-2.662
		c3.684-2.779,7.207-5.77,10.913-8.518c7.552-5.609,15.246-10.975,24.105-14.537c4.96-1.991,6.794-6.577,7.978-11.215
		c4.004-15.722,4.475-31.598,1.628-47.577c-1.828-10.285-3.607-20.579-5.297-30.891c-0.274-1.692-1.435-5.063,0.2-5.555
		c1.726-0.369,2.604,3.918,3.026,6.042c1.854,9.29,3.642,18.585,6.546,27.629c0.452,1.397,0.976,2.773,1.508,4.146
		c1.368,3.533,3.243,3.794,5.571,0.785c5.731-7.408,9.817-15.58,10.733-24.919c1.402-22.563-6.62-30.768-4.757-31.648
		c4.644,0.633,6.553,3.489,8.095,6.377c5.508,10.335,7.526,20.948,3.742,32.545c-0.5,1.525-1.385,4.638-2.434,6.801
		c-7.509,18.311-11.136,37.794-17.554,56.44c-0.729,2.113-2.146,4.954,0.495,6.746c2.503,1.697,5.107,0.371,7.418-0.995
		c1.265-0.755,2.472-1.646,3.567-2.62c9.027-8.028,14.574-18.142,17.188-29.651c1.649-7.267,1.165-14.486-3.445-21.085
		C214.306,123.037,210.287,117.312,212.216,116.068z"/>
</g>
<g>
	<path fill="none" stroke="#FFFFFF" stroke-width="3" stroke-miterlimit="10" d="M157.806,176.235c0,2.75-2.25,5-5,5H76.96
		c-2.75,0-5-2.25-5-5V28.5c0-2.75,2.25-5,5-5h75.847c2.75,0,5,2.25,5,5V176.235z"/>
</g>
<line fill="none" stroke="#FFFFFF" stroke-width="3" stroke-miterlimit="10" x1="72.695" y1="109.234" x2="156.973" y2="109.234"/>
<line fill="none" stroke="#FFFFFF" stroke-width="3" stroke-miterlimit="10" x1="72.076" y1="81.141" x2="157.181" y2="81.141"/>
<line fill="none" stroke="#FFFFFF" stroke-width="3" stroke-miterlimit="10" x1="90.884" y1="181.235" x2="90.884" y2="81.141"/>
<line fill="none" stroke="#FFFFFF" stroke-width="3" stroke-miterlimit="10" x1="110.867" y1="181.235" x2="110.867" y2="81.141"/>
<line fill="none" stroke="#FFFFFF" stroke-width="3" stroke-miterlimit="10" x1="130.849" y1="181.235" x2="130.849" y2="81.141"/>
<line fill="none" stroke="#FFFFFF" stroke-width="3" stroke-miterlimit="10" x1="71.401" y1="133.27" x2="157.8" y2="133.27"/>
<line fill="none" stroke="#FFFFFF" stroke-width="3" stroke-miterlimit="10" x1="72.393" y1="157.929" x2="130.542" y2="157.929"/>
</svg>
