<?xml version="1.0" encoding="utf-8"?>
<!-- Generator: Adobe Illustrator 16.0.0, SVG Export Plug-In . SVG Version: 6.00 Build 0)  -->
<!DOCTYPE svg PUBLIC "-//W3C//DTD SVG 1.1//EN" "http://www.w3.org/Graphics/SVG/1.1/DTD/svg11.dtd">
<svg version="1.1" id="Layer_1" xmlns="http://www.w3.org/2000/svg" xmlns:xlink="http://www.w3.org/1999/xlink" x="0px" y="0px"
	 width="250px" height="250px" viewBox="0 0 250 250" enable-background="new 0 0 250 250" xml:space="preserve">
<g>
	<path fill="#2B2B2B" d="M250,235c0,8.25-6.75,15-15,15H15c-8.25,0-15-6.75-15-15V15C0,6.75,6.75,0,15,0h220c8.25,0,15,6.75,15,15
		V235z"/>
</g>
<path fill="none" stroke="#FFFFFF" stroke-width="6" stroke-miterlimit="10" d="M238.953,125.478"/>
<path fill="none" stroke="#FFFFFF" stroke-width="6" stroke-miterlimit="10" d="M125,11.524"/>
<path fill="#FFFFFF" d="M173.535,62.366v17.448c0,4.731-3.837,8.565-8.566,8.565s-8.566-3.833-8.566-8.565V62.366h-57.1v17.448
	c0,4.731-3.836,8.565-8.565,8.565s-8.565-3.833-8.565-8.565V62.366H57.429v137.042h137.044V62.366H173.535z"/>
<path fill="#FFFFFF" d="M96.958,79.697c0,3.403-2.761,6.164-6.163,6.164l0,0c-3.404,0-6.165-2.761-6.165-6.164V55.182
	c0-3.404,2.761-6.163,6.165-6.163l0,0c3.402,0,6.163,2.759,6.163,6.163V79.697z"/>
<path fill="#FFFFFF" d="M171.188,79.697c0,3.403-2.759,6.164-6.16,6.164l0,0c-3.405,0-6.164-2.761-6.164-6.164V55.182
	c0-3.404,2.759-6.163,6.164-6.163l0,0c3.401,0,6.16,2.759,6.16,6.163V79.697z"/>
<rect x="67.158" y="103.821" fill="#2B2B2B" width="116.738" height="84.169"/>
<rect x="101.207" y="116.827" fill="#FFFFFF" width="20.064" height="14.589"/>
<rect x="128.383" y="116.827" fill="#FFFFFF" width="20.065" height="14.589"/>
<rect x="154.993" y="116.827" fill="#FFFFFF" width="20.066" height="14.589"/>
<rect x="154.993" y="139.877" fill="#FFFFFF" width="20.066" height="14.595"/>
<rect x="128.383" y="139.877" fill="#FFFFFF" width="20.065" height="14.595"/>
<rect x="101.207" y="138.61" fill="#FFFFFF" width="20.064" height="14.596"/>
<rect x="74.6" y="138.61" fill="#FFFFFF" width="20.063" height="14.596"/>
<rect x="74.6" y="161.66" fill="#FFFFFF" width="20.063" height="14.598"/>
<rect x="101.207" y="161.66" fill="#FFFFFF" width="20.064" height="14.598"/>
<rect x="128.383" y="161.66" fill="#FFFFFF" width="20.065" height="14.598"/>
<rect x="154.993" y="161.66" fill="#FFFFFF" width="20.066" height="14.598"/>
<line fill="none" stroke="#FFFFFF" stroke-width="6" stroke-linecap="round" stroke-miterlimit="10" x1="185.917" y1="45.833" x2="224.583" y2="45.833"/>
<line fill="none" stroke="#FFFFFF" stroke-width="6" stroke-linecap="round" stroke-miterlimit="10" x1="205.25" y1="65.166" x2="205.25" y2="26.5"/>
<path fill="none" stroke="#FFFFFF" stroke-width="6" stroke-linecap="round" stroke-miterlimit="10" d="M223.915,68.186
	C234.132,85.351,240,105.407,240,126.833c0,63.421-51.412,114.833-114.833,114.833S10.333,190.254,10.333,126.833
	C10.333,63.413,61.746,12,125.167,12c19.079,0,37.072,4.653,52.905,12.887"/>
<path fill="none" stroke="#FFFFFF" stroke-width="6" stroke-linecap="round" stroke-miterlimit="10" d="M223.915,68.186"/>
<path fill="none" stroke="#FFFFFF" stroke-width="6" stroke-linecap="round" stroke-miterlimit="10" d="M178.072,24.887"/>
</svg>
