<?xml version="1.0" encoding="utf-8"?>
<!-- Generator: Adobe Illustrator 16.0.0, SVG Export Plug-In . SVG Version: 6.00 Build 0)  -->
<!DOCTYPE svg PUBLIC "-//W3C//DTD SVG 1.1//EN" "http://www.w3.org/Graphics/SVG/1.1/DTD/svg11.dtd">
<svg version="1.1" id="Layer_1" xmlns="http://www.w3.org/2000/svg" xmlns:xlink="http://www.w3.org/1999/xlink" x="0px" y="0px"
	 width="250px" height="250px" viewBox="0 0 250 250" enable-background="new 0 0 250 250" xml:space="preserve">
<path fill="none" stroke="#FFFFFF" stroke-width="6" stroke-miterlimit="10" d="M238.953,125.478"/>
<path fill="none" stroke="#FFFFFF" stroke-width="6" stroke-miterlimit="10" d="M125,11.524"/>
<path fill="#2B2B2B" d="M173.535,62.366v17.448c0,4.731-3.838,8.565-8.566,8.565s-8.566-3.833-8.566-8.565V62.366H99.303v17.448
	c0,4.731-3.836,8.565-8.565,8.565s-8.565-3.833-8.565-8.565V62.366H57.429v137.042h137.043V62.366H173.535z"/>
<path fill="#2B2B2B" d="M96.958,79.697c0,3.403-2.761,6.164-6.163,6.164l0,0c-3.404,0-6.165-2.761-6.165-6.164V55.182
	c0-3.404,2.761-6.163,6.165-6.163l0,0c3.402,0,6.163,2.759,6.163,6.163V79.697z"/>
<path fill="#2B2B2B" d="M171.188,79.697c0,3.403-2.758,6.164-6.16,6.164l0,0c-3.404,0-6.164-2.761-6.164-6.164V55.182
	c0-3.404,2.76-6.163,6.164-6.163l0,0c3.402,0,6.16,2.759,6.16,6.163V79.697z"/>
<line fill="none" stroke="#2B2B2B" stroke-width="6" stroke-linecap="round" stroke-miterlimit="10" x1="185.917" y1="45.833" x2="224.583" y2="45.833"/>
<line fill="none" stroke="#2B2B2B" stroke-width="6" stroke-linecap="round" stroke-miterlimit="10" x1="205.25" y1="65.166" x2="205.25" y2="26.5"/>
<path fill="none" stroke="#2B2B2B" stroke-width="6" stroke-linecap="round" stroke-miterlimit="10" d="M223.915,68.186
	C234.132,85.351,240,105.407,240,126.833c0,63.421-51.412,114.833-114.833,114.833S10.333,190.254,10.333,126.833
	C10.333,63.413,61.746,12,125.167,12c19.079,0,37.071,4.653,52.905,12.887"/>
<path fill="none" stroke="#FFFFFF" stroke-width="6" stroke-linecap="round" stroke-miterlimit="10" d="M223.915,68.186"/>
<path fill="none" stroke="#FFFFFF" stroke-width="6" stroke-linecap="round" stroke-miterlimit="10" d="M178.072,24.887"/>
<rect x="66.833" y="106.167" fill="#FFFFFF" width="117.333" height="80"/>
<rect x="101.207" y="116.827" fill="#2B2B2B" width="20.064" height="14.589"/>
<rect x="128.383" y="116.827" fill="#2B2B2B" width="20.064" height="14.589"/>
<rect x="154.993" y="116.827" fill="#2B2B2B" width="20.065" height="14.589"/>
<rect x="154.993" y="139.877" fill="#2B2B2B" width="20.065" height="14.596"/>
<rect x="128.383" y="139.877" fill="#2B2B2B" width="20.064" height="14.596"/>
<rect x="101.207" y="138.609" fill="#2B2B2B" width="20.064" height="14.597"/>
<rect x="74.6" y="138.609" fill="#2B2B2B" width="20.063" height="14.597"/>
<rect x="74.6" y="161.66" fill="#2B2B2B" width="20.063" height="14.598"/>
<rect x="101.207" y="161.66" fill="#2B2B2B" width="20.064" height="14.598"/>
<rect x="128.383" y="161.66" fill="#2B2B2B" width="20.064" height="14.598"/>
<rect x="154.993" y="161.66" fill="#2B2B2B" width="20.065" height="14.598"/>
</svg>
