<?xml version="1.0" encoding="utf-8"?>
<!-- Generator: Adobe Illustrator 16.0.0, SVG Export Plug-In . SVG Version: 6.00 Build 0)  -->
<!DOCTYPE svg PUBLIC "-//W3C//DTD SVG 1.1//EN" "http://www.w3.org/Graphics/SVG/1.1/DTD/svg11.dtd">
<svg version="1.1" id="Layer_1" xmlns="http://www.w3.org/2000/svg" xmlns:xlink="http://www.w3.org/1999/xlink" x="0px" y="0px"
	 width="607.661px" height="601.468px" viewBox="0 0 607.661 601.468" enable-background="new 0 0 607.661 601.468"
	 xml:space="preserve">
<path fill="#282828" d="M303.8,0C136.043,0,0,135.992,0,303.749c0,147.043,104.217,269.678,243.217,297.719v-62.205
	c0,0,0.122,2.37-33.758,2.61c-33.877,0.238-68.361-11.526-83.303-50.232c-16.644-32.754-38.844-60.117-53.415-67.045
	c8.352-8.71,45.144-6.636,55.803,11.371c10.76,15.167,53.847,82.456,114.441,49.047c3.555-38.854,15.166-46.434,15.166-46.434
	c-72.029-6.627-131.733-51.636-134.575-144.036c-2.843-92.403,34.505-110.893,34.505-110.893
	c-20.85-42.647,1.509-86.156,1.509-86.156s31.158-0.707,66.521,49.048c0,0,22.746-15.528,84.171-15.528h0.008
	c61.424,0,84.194,15.529,84.194,15.529c35.362-49.756,66.546-49.142,66.546-49.142s22.432,43.558,1.582,86.204
	c0,0,37.423,18.51,34.58,110.915c-2.843,92.402-62.225,137.417-134.254,144.05c0,0,10.279,7.583,14.279,46.437v54.255v59.336
	c132-32.758,230.444-152.332,230.444-294.85C607.661,135.992,471.557,0,303.8,0z"/>
</svg>
