<?xml version="1.0" encoding="utf-8"?>
<!-- Generator: Adobe Illustrator 16.0.0, SVG Export Plug-In . SVG Version: 6.00 Build 0)  -->
<!DOCTYPE svg PUBLIC "-//W3C//DTD SVG 1.1//EN" "http://www.w3.org/Graphics/SVG/1.1/DTD/svg11.dtd">
<svg version="1.1" id="Layer_1" xmlns="http://www.w3.org/2000/svg" xmlns:xlink="http://www.w3.org/1999/xlink" x="0px" y="0px"
	 width="149.264px" height="179.416px" viewBox="0 0 149.264 179.416" enable-background="new 0 0 149.264 179.416"
	 xml:space="preserve">
<path fill="#FCFCFC" d="M137.072,30.322c7.334-15-0.53-30.321-0.53-30.321s-10.958-0.292-23.396,17.208c0,0-8-5.625-29.604-5.542v0
	c-21.604-0.083-29.604,5.542-29.604,5.542C41.5-0.292,30.542,0,30.542,0s-7.864,15.321-0.531,30.321c0,0-13.136,6.512-12.136,39.012
	c1,32.5,21.999,48.334,47.333,50.667c0,0-4.083,2.668-5.333,16.334c-21.313,11.75-36.465-11.916-40.25-17.25
	c-3.75-6.334-16.688-7.063-19.625-4c5.125,2.438,12.938,12.063,18.792,23.582c5.256,13.613,17.584,17.752,29.5,17.668
	s12.083-0.918,12.083-0.918v24h23.167h23.167v-24v-19.082c-1.25-13.666-4.833-16.334-4.833-16.334
	c25.334-2.332,46.333-18.166,47.333-50.666S137.072,30.322,137.072,30.322z"/>
</svg>
