<?xml version="1.0" encoding="utf-8"?>
<!-- Generator: Adobe Illustrator 16.0.0, SVG Export Plug-In . SVG Version: 6.00 Build 0)  -->
<!DOCTYPE svg PUBLIC "-//W3C//DTD SVG 1.1//EN" "http://www.w3.org/Graphics/SVG/1.1/DTD/svg11.dtd">
<svg version="1.1" xmlns="http://www.w3.org/2000/svg" xmlns:xlink="http://www.w3.org/1999/xlink" x="0px" y="0px"
	 width="284.389px" height="625.362px" viewBox="0 0 284.389 625.362" enable-background="new 0 0 284.389 625.362"
	 xml:space="preserve">
<g id="Layer_1">
</g>
<g id="Layer_2">
	<g>
		<path fill="#5D92CA" d="M282.628,272.419l-40.769-55.927c3.256-49.261-11.162-100.917-41.997-150.054
			c-24.706-39.372-50.924-63.1-52.027-64.091c-3.488-3.13-8.774-3.129-12.26,0.002C134.471,3.341,108.281,27.07,83.6,66.441
			C52.259,116.439,37.914,169.043,41.86,219.08L1.761,274.087c-1.657,2.271-2.18,5.177-1.42,7.884l31.695,112.883
			c0.956,3.398,3.776,5.947,7.253,6.557c0.528,0.092,1.057,0.137,1.583,0.137c2.93,0,5.725-1.407,7.465-3.843L81.185,351.7
			l51.758,167.154c1.19,3.841,4.743,6.508,8.764,6.508h0.104c4.021,0,7.574-2.667,8.765-6.508l52.383-169.145l33.093,46.338
			c1.74,2.438,4.535,3.838,7.466,3.838c0.524,0,1.054-0.049,1.582-0.14c3.478-0.61,6.298-3.16,7.253-6.559l31.695-112.882
			C284.808,277.599,284.285,274.691,282.628,272.419z M141.718,22.005c21.598,22.057,92.115,102.732,81.105,201.808l-41.275,133.549
			h-39.79H101.97L60.696,223.813C49.704,124.917,120.16,44.094,141.718,22.005z M44.529,371.46l-25.316-90.161l28.19-38.672
			l26.96,87.047L44.529,371.46z M141.758,485.479l-34.106-110.117h23.182l11.584,39l12.057-39h21.39L141.758,485.479z
			 M239.86,369.792l-30.08-42.133l26.958-87.042l28.439,39.013L239.86,369.792z"/>
		<path fill="#5D92CA" d="M141.342,225.831c22,0,39.898-17.898,39.898-39.897c0-22-17.897-39.897-39.898-39.897
			c-21.999,0-39.897,17.898-39.897,39.897C101.445,207.932,119.343,225.831,141.342,225.831z M141.342,164.386
			c11.882,0,21.547,9.667,21.547,21.547s-9.665,21.547-21.547,21.547c-11.88,0-21.547-9.667-21.547-21.547
			S129.462,164.386,141.342,164.386z"/>
		<rect x="42.978" y="606.362" fill="#5D92CA" width="197" height="19"/>
	</g>
</g>
</svg>
