<?xml version="1.0" encoding="utf-8"?>
<!-- Generator: Adobe Illustrator 16.0.0, SVG Export Plug-In . SVG Version: 6.00 Build 0)  -->
<!DOCTYPE svg PUBLIC "-//W3C//DTD SVG 1.1//EN" "http://www.w3.org/Graphics/SVG/1.1/DTD/svg11.dtd">
<svg version="1.1" id="Layer_1" xmlns="http://www.w3.org/2000/svg" xmlns:xlink="http://www.w3.org/1999/xlink" x="0px" y="0px"
	 width="801.582px" height="638.489px" viewBox="0 0 801.582 638.489" enable-background="new 0 0 801.582 638.489"
	 xml:space="preserve">
<path fill="none" stroke="#006838" stroke-linecap="round" stroke-miterlimit="10" d="M360.858,549.306"/>
<g>
	<path fill-rule="evenodd" clip-rule="evenodd" fill="#3C2415" d="M728.756,181.619c3.609-2.151,14.333,7.769,21.943,15.75
		c34.314,35.998,42.607,97.212,20.056,141.261c-5.843,11.411-11.223,22.988-14.197,35.474c-1.666,6.984-4.159,15.107,0.624,21.021
		c11.751,14.51,2.605,22.08-8.441,29.194c-29.221,18.825-59.224,35.014-95.846,33.134c-15.856-0.818-30.132,5.125-43.749,13.747
		c-26.65,16.872-53.754,33.066-81.198,48.617c-10.252,5.809-17.349,13.774-22.796,23.513
		c-11.921,21.305-24.944,41.993-34.948,64.371c-7.593,16.978-17.81,17.941-29.448,3.035c-4.421-5.664-7.69-12.198-11.597-18.272
		c-4.938-7.669-7.275-13.787,2.851-20.492c7.638-5.064,7.618-15.57,9.048-24.306c4.694-28.693,2.906-57.603,2.82-86.465
		c-0.013-5.432-1.654-11.05,1.213-16.468c5.942-0.606,5.616,4.572,6.268,7.597c2.576,11.923,4.401,24.013,6.744,35.995
		c1.133,5.782-1.607,14.094,4.692,16.665c7.14,2.917,11.374-5.194,16.411-9.061c12.332-9.458,24.131-19.62,36.533-28.981
		c25.284-19.078,51.044-37.33,80.707-49.438c16.612-6.784,22.748-22.386,26.702-38.155c13.408-53.491,14.979-107.5,5.455-161.856
		c-6.126-34.992-12.079-70.019-17.731-105.091c-0.928-5.754-4.804-17.23,0.666-18.897c5.778-1.25,8.721,13.332,10.14,20.557
		c6.203,31.597,12.185,63.226,21.916,93.993c1.505,4.754,3.256,9.438,5.039,14.102c4.59,12.023,10.857,12.915,18.659,2.673
		c19.193-25.202,32.869-53.003,35.929-84.773c4.706-76.755-22.166-104.668-15.919-107.674c15.549,2.161,21.939,11.879,27.096,21.702
		c18.444,35.158,25.207,71.265,12.537,110.712c-1.669,5.194-4.636,15.778-8.155,23.141c-25.134,62.288-37.28,128.567-58.769,191.994
		c-2.439,7.2-7.18,16.87,1.664,22.967c8.38,5.775,17.104,1.259,24.836-3.396c4.237-2.556,8.273-5.592,11.948-8.911
		c30.22-27.303,48.798-61.706,57.546-100.88c5.521-24.712,3.899-49.275-11.541-71.72
		C735.75,205.329,722.298,185.853,728.756,181.619z"/>
	<path fill-rule="evenodd" clip-rule="evenodd" fill="none" d="M744.463,217.997c15.44,22.445,17.062,47.008,11.541,71.72
		c-8.748,39.174-27.326,73.577-57.546,100.88c-3.675,3.319-7.711,6.355-11.948,8.911c-7.732,4.654-16.456,9.171-24.836,3.396
		c-8.844-6.097-4.104-15.767-1.664-22.967c21.488-63.427,33.635-129.706,58.769-191.994c1.633-4.05,1.392-1.635,3.391-5.54
		C722.169,182.403,735.75,205.329,744.463,217.997z"/>
</g>
<path fill="none" stroke="#006838" stroke-linecap="round" stroke-miterlimit="10" d="M440.768,549.586"/>
<path fill="#2E3192" d="M465.369,547.307c-1.23-3.495-16.04-2.151-18.997-1.005c-3.262,1.265-5.33,2.771-6.398,5.037l-1.833,0.614
	l3.274,8.592l1.487-0.498c0,0,3.452,1.761,7.881-0.191C455.681,557.696,466.599,550.8,465.369,547.307z"/>
<path fill="#DC1F26" d="M537.686,537.674c-1.23-3.497-16.04-2.152-18.998-1.005c-3.262,1.265-5.329,2.771-6.396,5.035l-1.834,0.615
	l3.274,8.593l1.488-0.5c0,0,3.45,1.763,7.879-0.19C528,548.063,538.917,541.166,537.686,537.674z"/>
<path fill="#009444" d="M496.924,493.745c-3.214-1.846-13.561,8.836-15.053,11.634c-1.648,3.087-2.231,5.578-1.563,7.991
	l-0.989,1.661l8.088,4.376l0.801-1.349c0,0,3.765-0.918,5.849-5.286C496.36,507.939,500.133,495.59,496.924,493.745z"/>
<path fill="#2E3192" d="M548.238,462.402c1.641-3.324-9.667-12.98-12.555-14.295c-3.184-1.451-5.705-1.877-8.072-1.059l-1.72-0.884
	l-3.86,8.347l1.396,0.715c0,0,1.151,3.7,5.642,5.506C534.037,462.728,546.597,465.722,548.238,462.402z"/>
<path fill="#2E3192" d="M567.494,467.168c0.693,3.642,15.536,4.529,18.632,3.836c3.415-0.762,5.686-1.94,7.08-4.021l1.904-0.331
	l-1.951-8.987l-1.545,0.271c0,0-3.149-2.26-7.822-0.99C578.626,458.348,566.799,463.531,567.494,467.168z"/>
<path fill="#009444" d="M575.404,500.292c-1.382-3.439-16.119-1.461-19.023-0.187c-3.206,1.403-5.206,2.997-6.177,5.306
	l-1.804,0.691l3.64,8.444l1.464-0.562c0,0,3.523,1.611,7.866-0.53C566.168,511.089,576.782,503.729,575.404,500.292z"/>
<path fill="#DC1F26" d="M595.982,512.033c3.632,0.743,10.097-12.648,10.633-15.773c0.596-3.448,0.367-5.998-1.027-8.077l0.417-1.889
	l-9.054-1.611l-0.336,1.532c0,0-3.287,2.052-3.891,6.855C592.058,498.381,592.355,511.292,595.982,512.033z"/>
<path fill="#009444" d="M684.024,447.598c-0.262-3.696-14.898-6.324-18.053-5.999c-3.48,0.352-5.874,1.259-7.502,3.16l-1.933,0.105
	l0.882,9.154l1.566-0.088c0,0,2.86,2.612,7.651,1.902C671.928,455.049,684.285,451.29,684.024,447.598z"/>
<path fill="#009444" d="M606.113,427.37c0.646-3.649-12.913-9.753-16.054-10.205c-3.463-0.503-6.004-0.204-8.046,1.245l-1.898-0.368
	l-1.369,9.094l1.54,0.296c0,0,2.142,3.23,6.959,3.705C592.572,431.661,605.469,431.016,606.113,427.37z"/>
<path fill="#DC1F26" d="M619.895,446.058c2.342,2.872,15.82-3.409,18.213-5.491c2.642-2.295,4.075-4.414,4.312-6.906l1.519-1.196
	l-5.992-6.976l-1.229,0.972c0,0-3.844-0.488-7.351,2.85C625.49,433,617.553,443.188,619.895,446.058z"/>
<path fill="#009444" d="M596.161,380.095c2.685,2.554,15.268-5.367,17.38-7.733c2.334-2.61,3.491-4.891,3.413-7.393l1.355-1.378
	l-6.819-6.168l-1.097,1.12c0,0-3.877-0.002-6.938,3.749C600.076,366.437,593.479,377.54,596.161,380.095z"/>
<path fill="#009444" d="M636.369,341.224c2.684,2.554,15.268-5.368,17.38-7.733c2.334-2.608,3.491-4.89,3.412-7.393l1.355-1.378
	l-6.818-6.169l-1.098,1.12c0,0-3.876-0.001-6.937,3.749C640.282,327.565,633.686,338.668,636.369,341.224z"/>
<path fill="#2E3192" d="M649.426,384.771c-1.045-3.557-15.905-2.992-18.918-2c-3.324,1.09-5.468,2.486-6.652,4.692l-1.864,0.515
	l2.819,8.755l1.51-0.421c0,0,3.355,1.942,7.881,0.224C639.206,394.637,650.471,388.321,649.426,384.771z"/>
<path fill="#2E3192" d="M694.074,317.522c-3.176-1.911-13.738,8.556-15.284,11.325c-1.711,3.052-2.345,5.53-1.726,7.956l-1.024,1.64
	l7.998,4.54l0.827-1.331c0,0,3.785-0.84,5.956-5.167C693.222,331.703,697.245,319.432,694.074,317.522z"/>
<path fill="#009444" d="M702.346,318.158c3.344-1.601,0.409-16.179-1.051-18.993c-1.608-3.107-3.329-5-5.697-5.817l-0.806-1.757
	l-8.19,4.183l0.656,1.423c0,0-1.379,3.623,1.04,7.815C690.971,309.648,699.008,319.757,702.346,318.158z"/>
<path fill="#DC1F26" d="M655.068,298.549c3.52,1.162,11.499-11.388,12.394-14.43c0.992-3.355,1.061-5.912-0.082-8.141l0.637-1.826
	l-8.806-2.654l-0.513,1.481c0,0-3.503,1.658-4.663,6.358C652.754,284.534,651.552,297.392,655.068,298.549z"/>
<path fill="#2E3192" d="M651.616,242.807c-3.095-2.039-14.072,7.995-15.729,10.698c-1.833,2.98-2.565,5.431-2.045,7.88l-1.09,1.597
	l7.808,4.859l0.882-1.296c0,0,3.814-0.688,6.159-4.922C650.194,256.94,654.708,244.842,651.616,242.807z"/>
<path fill="#DC1F26" d="M723.418,219.335c-2.854-2.364-14.86,6.414-16.801,8.921c-2.146,2.762-3.143,5.119-2.893,7.61l-1.256,1.468
	l7.231,5.681l1.018-1.192c0,0,3.866-0.268,6.658-4.221C720.464,233.23,726.271,221.695,723.418,219.335z"/>
<path fill="#DC1F26" d="M718.773,162.084c-1.215-3.501-16.03-2.221-18.991-1.084c-3.267,1.25-5.34,2.747-6.419,5.008l-1.836,0.604
	l3.238,8.608l1.487-0.492c0,0,3.446,1.775,7.884-0.157C709.042,172.434,719.989,165.581,718.773,162.084z"/>
<path fill="#009444" d="M759.258,129.575c-2.172-3.002-15.989,2.493-18.497,4.434c-2.77,2.139-4.323,4.17-4.704,6.646l-1.584,1.106
	l5.582,7.31l1.281-0.9c0,0,3.811,0.708,7.506-2.421C752.923,142.29,761.43,132.575,759.258,129.575z"/>
<path fill="#2E3192" d="M765.518,105.66c0.357-3.688-13.643-8.704-16.808-8.905c-3.491-0.227-6.001,0.27-7.923,1.875l-1.922-0.217
	l-0.645,9.174l1.557,0.173c0,0,2.391,3.051,7.23,3.146C752.359,111.009,765.164,109.345,765.518,105.66z"/>
<path fill="#DC1F26" d="M717.737,67.651c-3.417-1.432-12.351,10.457-13.48,13.419c-1.251,3.268-1.517,5.812-0.554,8.124l-0.775,1.77
	l8.569,3.333l0.627-1.437c0,0,3.622-1.38,5.146-5.975C718.951,81.806,721.153,69.082,717.737,67.651z"/>
<path fill="#009444" d="M728.137,36.119c-3.418-1.432-12.353,10.457-13.481,13.419c-1.251,3.268-1.518,5.812-0.556,8.124
	l-0.774,1.77l8.57,3.333l0.628-1.437c0,0,3.622-1.38,5.145-5.976C729.35,50.273,731.551,37.549,728.137,36.119z"/>
<path fill="#2E3192" d="M670.684,75.019c2.598,2.642,15.431-4.874,17.617-7.171c2.416-2.532,3.644-4.776,3.647-7.28l1.4-1.334
	l-6.619-6.384l-1.133,1.083c0,0-3.874-0.125-7.054,3.525C675.031,61.495,668.085,72.381,670.684,75.019z"/>
<path fill="#009444" d="M681.139,95.553c-2.869,2.346,3.435,15.815,5.521,18.203c2.298,2.637,4.419,4.068,6.912,4.302l1.198,1.515
	l6.967-6.004l-0.974-1.227c0,0,0.479-3.847-2.862-7.348C694.207,101.125,684.002,93.208,681.139,95.553z"/>
<path fill="#2E3192" d="M707.838,109.318c-3.636,0.716-4.427,15.567-3.713,18.657c0.783,3.409,1.978,5.67,4.066,7.053l0.343,1.902
	l8.974-2.01l-0.279-1.54c0,0,2.237-3.167,0.94-7.831C716.736,120.394,711.471,108.602,707.838,109.318z"/>
<path fill="#009444" d="M699.631,209.713c3.329,1.628,12.938-9.723,14.236-12.615c1.438-3.189,1.853-5.714,1.024-8.077l0.877-1.723
	l-8.364-3.824l-0.709,1.397c0,0-3.695,1.169-5.48,5.668C699.24,195.513,696.305,208.089,699.631,209.713z"/>
<path fill="#2E3192" d="M649.719,229.727c1.816,3.231,16.174-0.643,18.887-2.286c2.996-1.806,4.771-3.647,5.434-6.063l1.701-0.917
	l-4.707-7.901l-1.377,0.747c0,0-3.706-1.14-7.731,1.546C657.473,217.823,647.908,226.5,649.719,229.727z"/>
<path fill="#DC1F26" d="M515.827,502.033c1.752,3.265,16.18-0.331,18.926-1.918c3.031-1.748,4.844-3.555,5.551-5.956l1.719-0.887
	l-4.551-7.99l-1.394,0.721c0,0-3.681-1.213-7.76,1.396C523.809,490.282,514.076,498.77,515.827,502.033z"/>
<path fill="#DC1F26" d="M475.382,541.953c1.463,3.406,16.15,1.07,19.023-0.272c3.169-1.48,5.131-3.123,6.046-5.454l1.787-0.736
	l-3.844-8.354l-1.45,0.6c0,0-3.563-1.527-7.851,0.718C484.353,530.938,473.922,538.552,475.382,541.953z"/>
<path fill="#009444" d="M450.941,601.883c2.605,2.638,15.426-4.897,17.61-7.197c2.411-2.534,3.639-4.78,3.638-7.283l1.396-1.338
	l-6.627-6.375l-1.132,1.087c0,0-3.872-0.122-7.046,3.533C455.271,588.354,448.339,599.249,450.941,601.883z"/>
<path fill="#006838" d="M478.278,591.063c-9.126-5.936-54.8-36.589-54.305-51.498c0.095-2.841,1.607-5.228,4.264-6.715
	c7.313-3.619,14.499-1.387,14.825-1.275l-0.699,6.789c-0.043-0.013-6.305-1.946-11.02,0.384c-0.687,0.39-0.697,0.749-0.707,1.038
	c-0.275,8.205,29.468,31.321,50.848,45.23L478.278,591.063z"/>
<path fill="#006838" d="M502.822,561.136c-3.651,0-6.994-1.103-7.184-1.161l3.405-5.9c0.056,0.016,4.934,1.516,9.646-0.817
	c1.315-0.741,1.582-1.544,1.647-2.217c0.768-7.89-20.283-25.769-31.595-35.375c-4.191-3.558-7.811-6.634-10.063-8.853
	c-5.438-5.37-6.639-12.068-3.057-17.072c3.699-5.164,13.164-7.992,24.417-2.352l-5.887,4.692
	c-7.407-3.717-10.942-1.483-13.109,1.542c-1.618,2.261-0.753,5.414,2.316,8.443c2.077,2.048,5.608,5.045,9.696,8.521
	c19.159,16.271,34.936,30.594,33.913,41.099c-0.21,2.206-1.285,5.291-5.175,7.469C508.699,560.687,505.504,561.136,502.822,561.136z
	"/>
<path fill="#006838" d="M700.036,257.424c-1.358,0-2.726-0.433-4.444-0.808l1.799-6.132c3.174,0.694,5.12,0.31,6.296-0.852
	c1.109-1.104,0.907-2.76,0.771-3.424c-1.364-6.509-5.923-8.918-12.827-12.566c-5.343-2.822-11.993-6.337-18.634-12.807
	c-8.845-8.625-7.074-14.829-5.233-17.757c3.64-5.791,13.174-7.415,17.495-5.833l-3.34,5.926c-1.601-0.589-6.723,0.609-8.511,3.454
	c-1.799,2.857,1.887,7.141,4.245,9.436c5.949,5.799,11.869,8.928,17.09,11.688c7.639,4.036,14.232,7.524,16.237,17.093
	c0.754,3.6-0.218,7.16-2.601,9.523C706.853,255.878,704.258,257.424,700.036,257.424z"/>
<path fill="#006838" d="M715.81,209.28c-1.339,0-3.318-0.084-4.958-0.442l2.232-6.288c3.408,0.749,5.81,0.026,7.353-1.507
	c0.929-0.922,1.328-2.196,1.075-3.414c-1.264-6.028-5.153-8.299-12.488-12.114c-5.509-2.864-12.358-6.429-19.04-13.328
	c-6.709-6.929-4.021-12.931-2.552-15.193c3.191-4.917,9.763-8.036,14.358-6.356l-1.348,6.753c-1.121-0.4-5.602,0.433-7.419,3.231
	c-0.492,0.759-1.989,3.067,1.749,6.926c5.929,6.126,11.981,9.273,17.326,12.05c7.185,3.736,13.966,7.264,15.935,16.664
	c0.721,3.443-0.364,6.998-2.902,9.517C723.672,207.22,720.729,209.28,715.81,209.28z"/>
<path fill="#006838" d="M732.05,160.671c-1.067,0-2.493-0.159-3.799-0.446l1.741-6.437c2.239,0.488,3.747,0.254,4.664-0.608
	c1.289-1.215,1.407-3.669,1.259-4.606c-0.73-4.71-4.567-5.95-13.809-7.851c-7.938-1.634-17.823-3.665-25.494-11.586
	c-6.316-6.529-6.103-11.288-4.814-14.132c1.916-4.215,7.542-5.904,11.655-5.702l0.246,6.562c-1.954-0.097-5.345,0.827-5.831,1.894
	c-0.462,1.016,0.225,3.324,3.535,6.737c6.238,6.448,14.637,8.176,22.048,9.699c8.622,1.771,17.533,3.606,19.053,13.357
	c0.371,2.395,0.101,7.296-3.281,10.48C737.844,159.334,735.568,160.671,732.05,160.671z"/>
<path fill="#006838" d="M735.129,114.816c-0.918,0-0.957,0.186-2.072-0.059l-0.665-6.463c1.771,0.384,3.925-0.541,4.459-1.231
	c1.041-1.344,0.738-4.541,0.289-5.429c-1.818-3.596-8.309-3.847-15.823-4.14c-10.41-0.404-23.363-0.909-30.875-11.47
	c-2.47-3.473-2.861-7.522-1.049-10.832c1.808-3.294,4.886-4.271,8.952-4.068l1.034,5.507c-1.461-0.071-3.57,0.729-4.14,1.764
	c-0.572,1.048-0.348,2.386,0.632,3.766c5.613,7.893,15.826,8.29,25.705,8.674c9.217,0.358,17.92,0.696,21.513,7.792
	c1.202,2.376,2.153,8.488-0.967,12.518C741.099,112.466,739.041,114.816,735.129,114.816z"/>
<path fill="#006838" d="M725.913,80.915l-2.285-6.574c0.261,0.013,2.389-0.046,3-0.964c0.824-1.237,0.961-3.229,0.313-4.527
	c-2.468-4.94-11.274-5.36-19.789-5.764c-7.662-0.364-15.588-0.739-20.912-4.354c-3.697-2.512-5.454-7.879-3.996-12.218
	c1.116-3.333,2.736-4.706,6.227-5.103l2.391,6.2c-0.376-0.01-2.092,0.417-2.3,1.018c-0.445,1.338,0.088,3.678,1.423,4.589
	c3.771,2.559,10.743,2.89,17.484,3.209c10.433,0.495,20.846,1.211,25.435,9.445c2.436,4.367,0.715,9.262-0.729,11.202
	C730.183,79.743,726.108,80.928,725.913,80.915z"/>
<path fill="#006838" d="M652.401,463.89c-5.399,0-13.438-3.521-15.34-5.052c0,0-0.061-0.064,3.88-0.743
	c3.941-0.676,4.518-0.539,4.518-0.539c3.291,0.973,8.121,2.207,7.832-0.448c-0.077-0.04,0.309-1.743-2.394-7.029
	c-1.44-2.823-3.455-6.597-5.816-11.013c-18.909-35.429-37.023-71.112-32.865-84.28c2.132-6.763,9.872-10.579,17.692-8.397
	l-1.103,6.542c-4.303-1.202-9.187,0.544-10.237,3.86c-3.661,11.6,21.604,58.927,32.395,79.135c2.383,4.459,4.413,8.267,5.871,11.122
	c1.407,2.756,5.693,11.141,0.645,15.247C656.072,463.44,654.298,463.89,652.401,463.89z"/>
<path fill="#006838" d="M548.673,522.386c-5.399,0-13.044-4.328-14.945-5.855l6.516-3.736c2.68,2.147,7.883,3.542,9.318,2.808
	c-0.074-0.041,0.31-1.739-2.391-7.025c-2.472-4.84-6.127-10.514-9.998-16.524c-11.598-18.011-23.592-36.638-14.618-47.56
	c3.844-4.682,13.314-5.606,23.581,0.565l-4.574,3.114c-6.839-4.104-11.893-1.839-13.859,0.55
	c-5.887,7.167,5.739,25.219,15.077,39.722c3.96,6.151,7.704,11.964,10.328,17.099c1.404,2.755,5.691,11.139,0.643,15.246
	C552.344,521.937,550.572,522.386,548.673,522.386z"/>
<path fill="#006838" d="M603.333,490.987c-5.4,0-13.452-5.058-15.353-6.589l5.819-3.769c2.679,2.149,8.993,4.304,10.422,3.575
	c-0.074-0.04,0.309-1.742-2.392-7.027c-2.471-4.841-6.127-10.513-9.996-16.525c-11.6-18.011-23.594-36.635-14.62-47.557
	c3.847-4.684,15.125-4.959,25.393,1.212c0,0-1.728,1.1-3.159,1.822c-1.434,0.723-3.88,1.737-3.88,1.737
	c-6.836-4.106-11.239-2.929-13.204-0.539c-5.888,7.166,5.737,25.217,15.075,39.72c3.961,6.151,7.704,11.964,10.327,17.097
	c1.405,2.758,5.692,11.141,0.644,15.248C607.004,490.538,605.23,490.987,603.333,490.987z"/>
<path fill="#006838" d="M685.592,299.989c-0.423,0-1.557-0.202-2.001-0.221l1.649-6.444c3.097,0.15,4.629-0.364,5.394-1.351
	c0.624-0.804,0.608-2.5-0.043-4.651c-2.434-8.039-17.337-10.708-31.75-13.285c-7.989-1.433-16.253-2.911-23.063-5.381
	c-12.68-4.602-15.992-11.922-14.863-17.24c1.086-5.106,5.38-8.39,11.388-7.987l0.662,6.483c-2.485-0.176-5.153,1.12-5.531,2.89
	c-0.544,2.565,2.549,6.659,10.618,9.588c6.271,2.278,14.248,3.704,21.965,5.084c17.142,3.065,33.335,5.962,36.954,17.914
	c1.344,4.44,0.982,8.033-1.077,10.675C693.866,298.674,690.403,299.989,685.592,299.989z"/>
<path fill="#DC1F26" d="M634.63,289.875c-1.853,0.136-3.363,0.359-4.122,0.609c-3.324,1.09-5.468,2.487-6.652,4.692l-1.864,0.516
	l2.819,8.754l1.51-0.421c0,0,3.355,1.942,7.881,0.224c0.015-0.004,0.028-0.01,0.041-0.015c0,0,0.165-2.901,0.269-6.665
	C634.706,290.514,634.63,289.875,634.63,289.875z"/>
<path fill="#006838" d="M672.451,361.191c-1.953,0-3.825-0.307-6.113-0.807l1.922-6.282c7.791,1.698,11.755-0.789,12.849-3.686
	c2.749-7.27-17.646-20.127-32.545-29.514c-9.728-6.128-18.916-11.918-24.299-17.165c-2.311-2.256-9.348-9.113-5.85-14.679
	c3.438-5.472,12.98-4.121,16.262-2.919l-0.053,6.519c-2.871-1.047-9.516-1.015-10.584-0.019c0.101,0.026,0.318,1.881,4.879,6.324
	c4.879,4.755,13.776,10.366,23.2,16.303c20.521,12.931,39.901,25.146,35.225,37.51C685.619,357.337,680.486,361.191,672.451,361.191
	z"/>
<path fill="none" stroke="#006838" stroke-linecap="round" stroke-miterlimit="10" d="M360.758,549.586"/>
<g>
	
		<image overflow="visible" width="414" height="366" xlink:href="C2C9B690.png"  transform="matrix(0.24 0 0 0.24 402.1401 509.0615)">
	</image>
</g>
<g>
	
		<image overflow="visible" width="414" height="366" xlink:href="C2C9B691.png"  transform="matrix(0.24 0 0 0.24 474.4575 499.4277)">
	</image>
</g>
<g>
	
		<image overflow="visible" width="379" height="408" xlink:href="C2C9B697.png"  transform="matrix(0.24 0 0 0.24 443.3198 457.5322)">
	</image>
</g>
<g>
	
		<image overflow="visible" width="410" height="374" xlink:href="C2C9B692.png"  transform="matrix(0.24 0 0 0.24 486.0308 410.165)">
	</image>
</g>
<g>
	
		<image overflow="visible" width="416" height="362" xlink:href="C2C9B693.png"  transform="matrix(0.24 0 0 0.24 531.4644 420.5586)">
	</image>
</g>
<g>
	
		<image overflow="visible" width="414" height="368" xlink:href="C2C9B69E.png"  transform="matrix(0.24 0 0 0.24 512.3999 462.3721)">
	</image>
</g>
<g>
	
		<image overflow="visible" width="361" height="415" xlink:href="C2C9B69F.png"  transform="matrix(0.24 0 0 0.24 556.4409 448.6826)">
	</image>
</g>
<g>
	
		<image overflow="visible" width="415" height="360" xlink:href="C2C9B694.png"  transform="matrix(0.24 0 0 0.24 620.5366 405.5713)">
	</image>
</g>
<g>
	
		<image overflow="visible" width="415" height="360" xlink:href="C2C9B695.png"  transform="matrix(0.24 0 0 0.24 542.7456 380.9385)">
	</image>
</g>
<g>
	
		<image overflow="visible" width="402" height="389" xlink:href="2727632F.png"  transform="matrix(0.24 0 0 0.24 583.4702 389.4883)">
	</image>
</g>
<g>
	
		<image overflow="visible" width="395" height="397" xlink:href="2727632D.png"  transform="matrix(0.24 0 0 0.24 559.5347 321.4219)">
	</image>
</g>
<g>
	
		<image overflow="visible" width="395" height="397" xlink:href="2727632B.png"  transform="matrix(0.24 0 0 0.24 599.7427 282.5503)">
	</image>
</g>
<g>
	
		<image overflow="visible" width="415" height="364" xlink:href="27276325.png"  transform="matrix(0.24 0 0 0.24 585.9917 346.0205)">
	</image>
</g>
<g>
	
		<image overflow="visible" width="381" height="408" xlink:href="27276327.png"  transform="matrix(0.24 0 0 0.24 640.0396 281.291)">
	</image>
</g>
<g>
	
		<image overflow="visible" width="373" height="412" xlink:href="2727633A.png"  transform="matrix(0.24 0 0 0.24 650.6021 255.5903)">
	</image>
</g>
<g>
	
		<image overflow="visible" width="365" height="414" xlink:href="2727633B.png"  transform="matrix(0.24 0 0 0.24 616.7524 235.4985)">
	</image>
</g>
<g>
	
		<image overflow="visible" width="383" height="406" xlink:href="2727633D.png"  transform="matrix(0.24 0 0 0.24 596.7524 206.5356)">
	</image>
</g>
<g>
	
		<image overflow="visible" width="391" height="401" xlink:href="2727633F.png"  transform="matrix(0.24 0 0 0.24 666.4692 182.9351)">
	</image>
</g>
<g>
	
		<image overflow="visible" width="414" height="366" xlink:href="27276338.png"  transform="matrix(0.24 0 0 0.24 655.5269 123.8022)">
	</image>
</g>
<g>
	
		<image overflow="visible" width="405" height="385" xlink:href="2727635E.png"  transform="matrix(0.24 0 0 0.24 698.4731 92.6963)">
	</image>
</g>
<g>
	
		<image overflow="visible" width="414" height="360" xlink:href="2727635D.png"  transform="matrix(0.24 0 0 0.24 702.2212 60.7031)">
	</image>
</g>
<g>
	
		<image overflow="visible" width="370" height="412" xlink:href="2727635A.png"  transform="matrix(0.24 0 0 0.24 666.9272 31.5322)">
	</image>
</g>
<g>
	<image overflow="visible" width="370" height="412" xlink:href="27276355.png"  transform="matrix(0.24 0 0 0.24 677.3257 0)">
	</image>
</g>
<g>
	
		<image overflow="visible" width="397" height="395" xlink:href="27276356.png"  transform="matrix(0.24 0 0 0.24 634.1147 16.8506)">
	</image>
</g>
<g>
	
		<image overflow="visible" width="389" height="402" xlink:href="27276354.png"  transform="matrix(0.24 0 0 0.24 644.4028 59.127)">
	</image>
</g>
<g>
	
		<image overflow="visible" width="362" height="416" xlink:href="2727634A.png"  transform="matrix(0.24 0 0 0.24 667.8872 73.2866)">
	</image>
</g>
<g>
	
		<image overflow="visible" width="374" height="410" xlink:href="2727634D.png"  transform="matrix(0.24 0 0 0.24 662.1245 147.4736)">
	</image>
</g>
<g>
	
		<image overflow="visible" width="410" height="377" xlink:href="2727634E.png"  transform="matrix(0.24 0 0 0.24 613.4937 176.5596)">
	</image>
</g>
<g>
	
		<image overflow="visible" width="411" height="376" xlink:href="2727634C.png"  transform="matrix(0.24 0 0 0.24 479.6187 449.2822)">
	</image>
</g>
<g>
	
		<image overflow="visible" width="413" height="370" xlink:href="27276371.png"  transform="matrix(0.24 0 0 0.24 439.2437 491.1367)">
	</image>
</g>
<g>
	
		<image overflow="visible" width="397" height="395" xlink:href="2727636F.png"  transform="matrix(0.24 0 0 0.24 414.3696 543.6895)">
	</image>
</g>
<g>
	
		<image overflow="visible" width="353" height="363" xlink:href="27276351.png"  transform="matrix(0.24 0 0 0.24 585.9917 253.875)">
	</image>
</g>
<g>
	<path fill-rule="evenodd" clip-rule="evenodd" fill="#3C2415" d="M72.77,181.619c-3.61-2.151-14.334,7.769-21.944,15.75
		C16.511,233.366,8.219,294.58,30.77,338.629c5.842,11.411,11.223,22.987,14.198,35.473c1.666,6.984,4.159,15.107-0.625,21.021
		c-11.75,14.51-2.605,22.08,8.442,29.194c29.22,18.825,59.222,35.014,95.845,33.134c15.856-0.818,30.131,5.125,43.75,13.747
		c26.649,16.872,53.754,33.066,81.198,48.617c10.252,5.809,17.348,13.774,22.796,23.513c11.922,21.305,24.944,41.993,34.948,64.371
		c7.593,16.978,17.81,17.941,29.449,3.035c4.421-5.664,7.69-12.198,11.598-18.272c4.936-7.669,7.275-13.787-2.852-20.492
		c-7.638-5.064-7.619-15.57-9.048-24.306c-4.693-28.693-2.906-57.603-2.821-86.465c0.014-5.432,1.656-11.05-1.211-16.468
		c-5.943-0.606-5.617,4.572-6.269,7.597c-2.574,11.923-4.401,24.013-6.743,35.995c-1.133,5.782,1.607,14.094-4.694,16.665
		c-7.138,2.917-11.373-5.194-16.411-9.061c-12.332-9.458-24.13-19.62-36.533-28.981c-25.283-19.078-51.044-37.33-80.707-49.438
		c-16.613-6.784-22.748-22.386-26.703-38.155c-13.409-53.492-14.979-107.5-5.454-161.856c6.125-34.992,12.079-70.019,17.731-105.091
		c0.928-5.754,4.804-17.23-0.667-18.897c-5.778-1.25-8.72,13.332-10.14,20.557c-6.203,31.597-12.185,63.226-21.916,93.993
		c-1.504,4.754-3.255,9.438-5.039,14.102c-4.588,12.023-10.858,12.915-18.659,2.673c-19.193-25.202-32.87-53.003-35.928-84.773
		C93.599,63.307,120.47,35.394,114.225,32.388c-15.549,2.161-21.94,11.879-27.095,21.702
		c-18.445,35.158-25.208,71.265-12.538,110.712c1.669,5.194,4.636,15.778,8.156,23.141c25.133,62.288,37.279,128.567,58.768,191.994
		c2.44,7.2,7.179,16.87-1.664,22.967c-8.381,5.775-17.104,1.259-24.837-3.396c-4.237-2.556-8.273-5.592-11.948-8.911
		c-30.22-27.303-48.797-61.707-57.546-100.88c-5.52-24.712-3.898-49.275,11.542-71.72C65.775,205.329,79.227,185.853,72.77,181.619z
		"/>
	<path fill-rule="evenodd" clip-rule="evenodd" fill="none" d="M57.063,217.997c-15.44,22.445-17.062,47.008-11.542,71.72
		c8.749,39.173,27.327,73.577,57.546,100.88c3.675,3.319,7.711,6.355,11.948,8.911c7.733,4.654,16.456,9.171,24.837,3.396
		c8.843-6.097,4.104-15.767,1.664-22.967c-21.489-63.427-33.635-129.706-58.768-191.994c-1.633-4.05-1.392-1.635-3.391-5.54
		C79.356,182.403,65.775,205.329,57.063,217.997z"/>
</g>
<path fill="none" stroke="#006838" stroke-linecap="round" stroke-miterlimit="10" d="M360.758,549.586"/>
<path fill="#2E3192" d="M336.157,547.307c1.231-3.495,16.04-2.151,18.998-1.005c3.262,1.265,5.33,2.771,6.397,5.037l1.833,0.614
	l-3.274,8.592l-1.487-0.498c0,0-3.452,1.761-7.881-0.191C345.844,557.696,334.927,550.8,336.157,547.307z"/>
<path fill="#DC1F26" d="M263.839,537.674c1.231-3.497,16.04-2.152,18.998-1.005c3.263,1.265,5.33,2.771,6.398,5.035l1.833,0.615
	l-3.274,8.593l-1.488-0.5c0,0-3.452,1.763-7.88-0.19C273.527,548.063,262.609,541.166,263.839,537.674z"/>
<path fill="#009444" d="M304.602,493.745c3.214-1.846,13.56,8.836,15.052,11.634c1.647,3.087,2.231,5.578,1.563,7.991l0.989,1.661
	l-8.088,4.376l-0.801-1.349c0,0-3.766-0.918-5.848-5.286C305.167,507.939,301.391,495.59,304.602,493.745z"/>
<path fill="#2E3192" d="M253.289,462.402c-1.642-3.324,9.666-12.98,12.554-14.295c3.183-1.451,5.706-1.877,8.073-1.059l1.719-0.884
	l3.861,8.347l-1.396,0.715c0,0-1.151,3.7-5.643,5.506C267.489,462.728,254.928,465.722,253.289,462.402z"/>
<path fill="#2E3192" d="M234.032,467.168c-0.693,3.642-15.536,4.529-18.631,3.836c-3.416-0.762-5.685-1.94-7.081-4.021l-1.903-0.331
	l1.951-8.987l1.545,0.271c0,0,3.149-2.26,7.821-0.99C222.899,458.348,234.726,463.531,234.032,467.168z"/>
<path fill="#009444" d="M226.123,500.292c1.381-3.439,16.118-1.461,19.022-0.187c3.206,1.403,5.208,2.997,6.176,5.306l1.805,0.691
	l-3.64,8.444l-1.464-0.562c0,0-3.524,1.611-7.866-0.53C235.356,511.089,224.744,503.729,226.123,500.292z"/>
<path fill="#DC1F26" d="M205.544,512.033c-3.632,0.743-10.098-12.648-10.632-15.773c-0.596-3.448-0.367-5.998,1.026-8.077
	l-0.418-1.889l9.054-1.611l0.337,1.532c0,0,3.287,2.052,3.89,6.855C209.469,498.381,209.169,511.292,205.544,512.033z"/>
<path fill="#009444" d="M117.502,447.598c0.261-3.696,14.897-6.324,18.053-5.999c3.481,0.352,5.875,1.259,7.502,3.16l1.933,0.105
	l-0.882,9.154l-1.566-0.088c0,0-2.861,2.612-7.651,1.902C129.597,455.049,117.242,451.29,117.502,447.598z"/>
<path fill="#009444" d="M195.412,427.37c-0.644-3.649,12.915-9.753,16.054-10.205c3.464-0.503,6.004-0.204,8.046,1.245l1.898-0.368
	l1.369,9.094l-1.539,0.296c0,0-2.142,3.23-6.959,3.705C208.955,431.661,196.056,431.016,195.412,427.37z"/>
<path fill="#DC1F26" d="M181.631,446.058c-2.342,2.872-15.82-3.409-18.214-5.491c-2.641-2.295-4.076-4.414-4.312-6.906l-1.518-1.196
	l5.993-6.976l1.229,0.972c0,0,3.844-0.488,7.351,2.85C176.036,433,183.971,443.188,181.631,446.058z"/>
<path fill="#009444" d="M205.365,380.095c-2.684,2.554-15.268-5.367-17.38-7.733c-2.334-2.61-3.491-4.891-3.412-7.393l-1.356-1.378
	l6.82-6.168l1.098,1.12c0,0,3.875-0.002,6.937,3.749C201.451,366.437,208.046,377.54,205.365,380.095z"/>
<path fill="#009444" d="M165.157,341.224c-2.684,2.554-15.268-5.367-17.38-7.733c-2.334-2.608-3.491-4.89-3.412-7.393l-1.356-1.378
	l6.819-6.169l1.098,1.12c0,0,3.876-0.002,6.937,3.749C161.244,327.566,167.839,338.669,165.157,341.224z"/>
<path fill="#2E3192" d="M152.099,384.771c1.046-3.557,15.905-2.992,18.918-2c3.325,1.09,5.468,2.486,6.652,4.692l1.864,0.515
	l-2.819,8.755l-1.51-0.421c0,0-3.355,1.942-7.882,0.224C162.319,394.637,151.055,388.321,152.099,384.771z"/>
<path fill="#2E3192" d="M107.452,317.523c3.176-1.912,13.738,8.555,15.285,11.324c1.711,3.051,2.345,5.529,1.725,7.956l1.025,1.64
	l-7.998,4.54l-0.828-1.331c0,0-3.784-0.84-5.955-5.167C108.304,331.703,104.281,319.43,107.452,317.523z"/>
<path fill="#009444" d="M99.179,318.158c-3.343-1.602-0.41-16.18,1.052-18.994c1.607-3.107,3.329-5,5.696-5.817l0.806-1.757
	l8.19,4.183l-0.656,1.423c0,0,1.379,3.623-1.04,7.815C110.554,309.648,102.517,319.757,99.179,318.158z"/>
<path fill="#DC1F26" d="M146.458,298.549c-3.52,1.162-11.5-11.388-12.394-14.43c-0.992-3.355-1.061-5.912,0.082-8.141l-0.636-1.826
	l8.806-2.654l0.513,1.481c0,0,3.503,1.658,4.663,6.358C148.771,284.534,149.973,297.392,146.458,298.549z"/>
<path fill="#2E3192" d="M149.91,242.807c3.095-2.039,14.072,7.995,15.729,10.698c1.833,2.98,2.566,5.431,2.044,7.88l1.091,1.597
	l-7.808,4.859l-0.882-1.296c0,0-3.814-0.688-6.159-4.922C151.332,256.94,146.818,244.842,149.91,242.807z"/>
<path fill="#DC1F26" d="M78.108,219.335c2.854-2.364,14.859,6.414,16.8,8.921c2.146,2.762,3.143,5.119,2.892,7.61l1.257,1.468
	l-7.232,5.681l-1.017-1.192c0,0-3.867-0.268-6.66-4.221C81.062,233.23,75.256,221.695,78.108,219.335z"/>
<path fill="#DC1F26" d="M82.753,162.084c1.214-3.501,16.031-2.221,18.99-1.084c3.268,1.25,5.341,2.747,6.419,5.008l1.836,0.604
	l-3.237,8.608l-1.488-0.492c0,0-3.446,1.775-7.884-0.157C92.484,172.434,81.537,165.581,82.753,162.084z"/>
<path fill="#009444" d="M42.266,129.575c2.172-3.002,15.991,2.493,18.498,4.434c2.77,2.139,4.323,4.17,4.704,6.646l1.584,1.106
	l-5.581,7.31l-1.282-0.9c0,0-3.812,0.708-7.505-2.421C48.602,142.29,40.096,132.575,42.266,129.575z"/>
<path fill="#2E3192" d="M36.007,105.66c-0.357-3.688,13.644-8.704,16.808-8.905c3.492-0.227,6.001,0.27,7.923,1.875l1.921-0.217
	l0.646,9.174l-1.557,0.173c0,0-2.39,3.051-7.23,3.146C49.167,111.009,36.362,109.345,36.007,105.66z"/>
<path fill="#DC1F26" d="M83.789,67.651C87.206,66.22,96.14,78.108,97.27,81.071c1.25,3.268,1.517,5.812,0.554,8.124l0.775,1.77
	l-8.571,3.333l-0.627-1.437c0,0-3.622-1.38-5.144-5.975C82.575,81.806,80.374,69.082,83.789,67.651z"/>
<path fill="#009444" d="M73.39,36.119c3.417-1.432,12.351,10.457,13.481,13.419c1.25,3.268,1.517,5.812,0.554,8.124l0.775,1.77
	l-8.57,3.333l-0.627-1.437c0,0-3.622-1.38-5.145-5.976C72.176,50.273,69.975,37.549,73.39,36.119z"/>
<path fill="#2E3192" d="M130.842,75.019c-2.599,2.642-15.431-4.874-17.618-7.171c-2.415-2.532-3.645-4.776-3.648-7.28l-1.399-1.334
	l6.618-6.384l1.134,1.083c0,0,3.874-0.125,7.053,3.525C126.495,61.495,133.44,72.381,130.842,75.019z"/>
<path fill="#009444" d="M120.387,95.553c2.87,2.346-3.435,15.815-5.522,18.203c-2.298,2.637-4.418,4.068-6.912,4.302l-1.198,1.515
	l-6.966-6.004l0.974-1.227c0,0-0.479-3.847,2.862-7.348C107.32,101.125,117.522,93.208,120.387,95.553z"/>
<path fill="#2E3192" d="M93.687,109.318c3.636,0.716,4.427,15.567,3.713,18.657c-0.783,3.409-1.978,5.67-4.066,7.053l-0.344,1.902
	l-8.974-2.01l0.28-1.54c0,0-2.236-3.167-0.94-7.831C84.791,120.394,90.054,108.602,93.687,109.318z"/>
<path fill="#009444" d="M101.895,209.713c-3.329,1.628-12.938-9.723-14.237-12.615c-1.438-3.189-1.853-5.714-1.024-8.077
	l-0.877-1.723l8.364-3.824l0.709,1.397c0,0,3.695,1.169,5.481,5.668C102.285,195.513,105.22,208.089,101.895,209.713z"/>
<path fill="#2E3192" d="M151.805,229.727c-1.815,3.231-16.173-0.643-18.885-2.286c-2.996-1.806-4.772-3.647-5.434-6.063
	l-1.702-0.917l4.708-7.901l1.377,0.747c0,0,3.705-1.14,7.732,1.546C144.053,217.823,153.617,226.5,151.805,229.727z"/>
<path fill="#DC1F26" d="M285.699,502.033c-1.751,3.265-16.18-0.331-18.926-1.918c-3.031-1.748-4.843-3.555-5.551-5.956l-1.718-0.887
	l4.551-7.99l1.394,0.721c0,0,3.681-1.213,7.759,1.396C277.717,490.282,287.449,498.77,285.699,502.033z"/>
<path fill="#DC1F26" d="M326.143,541.953c-1.463,3.406-16.149,1.07-19.022-0.272c-3.17-1.48-5.132-3.123-6.045-5.454l-1.789-0.736
	l3.844-8.354l1.45,0.6c0,0,3.563-1.527,7.85,0.718C317.173,530.938,327.604,538.552,326.143,541.953z"/>
<path fill="#009444" d="M350.584,601.883c-2.605,2.638-15.426-4.897-17.61-7.197c-2.412-2.534-3.638-4.78-3.637-7.283l-1.396-1.338
	l6.626-6.375l1.133,1.087c0,0,3.873-0.122,7.045,3.533C346.254,588.354,353.187,599.249,350.584,601.883z"/>
<path fill="#006838" d="M323.248,591.063c9.126-5.936,54.8-36.589,54.305-51.498c-0.095-2.841-1.607-5.228-4.264-6.715
	c-7.313-3.619-14.499-1.387-14.825-1.275l0.7,6.789c0.042-0.013,6.305-1.946,11.02,0.384c0.687,0.39,0.698,0.749,0.708,1.038
	c0.273,8.205-29.468,31.321-50.848,45.23L323.248,591.063z"/>
<path fill="#006838" d="M298.705,561.136c3.651,0,6.993-1.103,7.183-1.161l-3.404-5.9c-0.055,0.016-4.934,1.516-9.646-0.817
	c-1.316-0.741-1.583-1.544-1.647-2.217c-0.768-7.89,20.283-25.769,31.593-35.375c4.192-3.558,7.811-6.634,10.064-8.853
	c5.438-5.37,6.639-12.068,3.056-17.072c-3.698-5.164-13.163-7.992-24.418-2.352l5.888,4.692c7.407-3.717,10.942-1.483,13.11,1.542
	c1.617,2.261,0.752,5.414-2.317,8.443c-2.077,2.048-5.608,5.045-9.696,8.521c-19.16,16.271-34.936,30.594-33.914,41.099
	c0.21,2.206,1.285,5.291,5.174,7.469C292.826,560.687,296.022,561.136,298.705,561.136z"/>
<path fill="#006838" d="M101.489,257.424c1.359,0,2.727-0.433,4.445-0.808l-1.799-6.132c-3.173,0.694-5.12,0.31-6.294-0.852
	c-1.11-1.104-0.908-2.76-0.771-3.424c1.364-6.509,5.923-8.918,12.828-12.566c5.343-2.822,11.992-6.337,18.633-12.807
	c8.845-8.625,7.075-14.829,5.233-17.757c-3.639-5.791-13.171-7.415-17.493-5.833l3.338,5.926c1.601-0.589,6.724,0.609,8.512,3.454
	c1.799,2.857-1.888,7.141-4.244,9.436c-5.951,5.799-11.87,8.928-17.09,11.688c-7.64,4.036-14.232,7.524-16.238,17.093
	c-0.755,3.6,0.217,7.16,2.6,9.523C94.673,255.878,97.268,257.424,101.489,257.424z"/>
<path fill="#006838" d="M85.716,209.28c1.338,0,3.317-0.084,4.958-0.442l-2.233-6.288c-3.407,0.749-5.809,0.026-7.352-1.507
	c-0.928-0.922-1.327-2.196-1.075-3.414c1.263-6.028,5.153-8.299,12.489-12.114c5.507-2.864,12.358-6.429,19.04-13.328
	c6.708-6.929,4.02-12.931,2.552-15.193c-3.193-4.917-9.764-8.036-14.36-6.356l1.348,6.753c1.122-0.4,5.601,0.433,7.42,3.231
	c0.491,0.759,1.989,3.067-1.75,6.926c-5.927,6.126-11.981,9.273-17.325,12.05c-7.184,3.736-13.967,7.264-15.936,16.664
	c-0.72,3.443,0.365,6.998,2.903,9.517C77.853,207.22,80.796,209.28,85.716,209.28z"/>
<path fill="#006838" d="M69.476,160.671c1.066,0,2.493-0.159,3.798-0.446l-1.741-6.437c-2.239,0.488-3.747,0.254-4.664-0.608
	c-1.289-1.215-1.406-3.669-1.259-4.606c0.731-4.71,4.568-5.95,13.809-7.851c7.938-1.634,17.823-3.665,25.494-11.586
	c6.317-6.529,6.104-11.288,4.814-14.132c-1.914-4.215-7.542-5.904-11.655-5.702l-0.244,6.562c1.953-0.097,5.344,0.827,5.83,1.894
	c0.462,1.016-0.225,3.324-3.535,6.737c-6.238,6.448-14.636,8.176-22.047,9.699c-8.623,1.771-17.534,3.606-19.053,13.357
	c-0.371,2.395-0.102,7.296,3.281,10.48C63.682,159.334,65.958,160.671,69.476,160.671z"/>
<path fill="#006838" d="M66.396,114.816c0.918,0,0.957,0.186,2.074-0.059l0.664-6.463c-1.771,0.384-3.925-0.541-4.459-1.231
	c-1.041-1.344-0.738-4.541-0.289-5.429c1.819-3.596,8.309-3.847,15.824-4.14c10.409-0.404,23.362-0.909,30.874-11.47
	c2.47-3.473,2.861-7.522,1.048-10.832c-1.807-3.294-4.885-4.271-8.951-4.068l-1.035,5.507c1.461-0.071,3.57,0.729,4.14,1.764
	c0.572,1.048,0.348,2.386-0.632,3.766c-5.614,7.893-15.828,8.29-25.706,8.674c-9.217,0.358-17.92,0.696-21.513,7.792
	c-1.202,2.376-2.152,8.488,0.967,12.518C60.427,112.466,62.485,114.816,66.396,114.816z"/>
<path fill="#006838" d="M75.614,80.915l2.284-6.574c-0.259,0.013-2.389-0.046-3-0.964c-0.825-1.237-0.96-3.229-0.313-4.527
	c2.467-4.94,11.274-5.36,19.788-5.764c7.662-0.364,15.587-0.739,20.913-4.354c3.697-2.512,5.453-7.879,3.997-12.218
	c-1.117-3.333-2.737-4.706-6.227-5.103l-2.392,6.2c0.378-0.01,2.092,0.417,2.3,1.018c0.446,1.338-0.087,3.678-1.422,4.589
	c-3.772,2.559-10.744,2.89-17.484,3.209c-10.434,0.495-20.846,1.211-25.435,9.445c-2.436,4.367-0.717,9.262,0.729,11.202
	C71.343,79.743,75.418,80.928,75.614,80.915z"/>
<path fill="#006838" d="M149.124,463.89c5.4,0,13.439-3.521,15.341-5.052c0,0,0.061-0.064-3.881-0.743
	c-3.941-0.676-4.517-0.539-4.517-0.539c-3.29,0.973-8.12,2.207-7.831-0.448c0.075-0.04-0.31-1.743,2.392-7.029
	c1.442-2.823,3.457-6.597,5.816-11.013c18.91-35.429,37.025-71.112,32.866-84.28c-2.132-6.763-9.871-10.579-17.693-8.397
	l1.104,6.542c4.303-1.202,9.186,0.544,10.236,3.86c3.661,11.6-21.604,58.927-32.395,79.135c-2.382,4.459-4.413,8.267-5.871,11.122
	c-1.407,2.756-5.693,11.141-0.645,15.247C145.454,463.44,147.227,463.89,149.124,463.89z"/>
<path fill="#006838" d="M252.853,522.386c5.398,0,13.043-4.328,14.945-5.855l-6.516-3.736c-2.679,2.147-7.883,3.542-9.318,2.808
	c0.075-0.041-0.309-1.739,2.392-7.025c2.471-4.84,6.125-10.514,9.995-16.524c11.6-18.011,23.594-36.638,14.62-47.56
	c-3.843-4.682-13.313-5.606-23.58,0.565l4.573,3.114c6.838-4.104,11.893-1.839,13.858,0.55c5.889,7.167-5.738,25.219-15.076,39.722
	c-3.96,6.151-7.704,11.964-10.327,17.099c-1.406,2.755-5.693,11.139-0.645,15.246C249.181,521.937,250.954,522.386,252.853,522.386z
	"/>
<path fill="#006838" d="M198.192,490.987c5.4,0,13.453-5.058,15.353-6.589l-5.819-3.769c-2.679,2.149-8.994,4.304-10.421,3.575
	c0.074-0.04-0.31-1.742,2.392-7.027c2.469-4.841,6.125-10.513,9.995-16.525c11.599-18.011,23.593-36.635,14.62-47.557
	c-3.848-4.684-15.125-4.959-25.394,1.212c0,0,1.729,1.1,3.162,1.822c1.432,0.723,3.879,1.737,3.879,1.737
	c6.834-4.106,11.238-2.929,13.204-0.539c5.888,7.166-5.738,25.217-15.076,39.72c-3.961,6.151-7.704,11.964-10.326,17.097
	c-1.407,2.758-5.694,11.141-0.646,15.248C194.521,490.538,196.295,490.987,198.192,490.987z"/>
<path fill="#006838" d="M115.934,299.989c0.422,0,1.556-0.202,2.001-0.221l-1.649-6.444c-3.097,0.15-4.628-0.364-5.395-1.351
	c-0.625-0.804-0.608-2.5,0.042-4.651c2.436-8.039,17.338-10.708,31.75-13.285c7.991-1.433,16.254-2.911,23.063-5.381
	c12.68-4.602,15.993-11.922,14.865-17.24c-1.086-5.106-5.38-8.39-11.389-7.987l-0.661,6.483c2.484-0.176,5.151,1.12,5.529,2.89
	c0.544,2.565-2.548,6.659-10.616,9.588c-6.271,2.278-14.25,3.704-21.966,5.084c-17.142,3.065-33.335,5.962-36.953,17.914
	c-1.344,4.44-0.983,8.033,1.077,10.675C107.659,298.674,111.123,299.989,115.934,299.989z"/>
<path fill="#DC1F26" d="M166.896,289.875c1.851,0.136,3.362,0.359,4.121,0.609c3.325,1.09,5.468,2.487,6.652,4.692l1.864,0.516
	l-2.819,8.754l-1.51-0.421c0,0-3.355,1.942-7.882,0.224c-0.012-0.004-0.027-0.01-0.04-0.015c0,0-0.166-2.901-0.269-6.665
	C166.82,290.514,166.896,289.875,166.896,289.875z"/>
<path fill="#006838" d="M129.075,361.191c1.953,0,3.825-0.307,6.113-0.807l-1.921-6.282c-7.792,1.698-11.756-0.789-12.849-3.686
	c-2.75-7.27,17.647-20.128,32.544-29.514c9.727-6.127,18.916-11.917,24.299-17.164c2.311-2.256,9.348-9.113,5.849-14.679
	c-3.438-5.472-12.98-4.121-16.261-2.919l0.053,6.519c2.87-1.047,9.516-1.015,10.583-0.019c-0.101,0.026-0.319,1.881-4.879,6.324
	c-4.877,4.755-13.776,10.365-23.199,16.303c-20.521,12.931-39.903,25.146-35.225,37.51
	C115.907,357.337,121.04,361.191,129.075,361.191z"/>
<g>
	
		<image overflow="visible" width="414" height="366" xlink:href="27276353.png"  transform="matrix(0.24 0 0 0.24 300.061 509.0615)">
	</image>
</g>
<g>
	
		<image overflow="visible" width="414" height="366" xlink:href="27276350.png"  transform="matrix(0.24 0 0 0.24 227.7432 499.4277)">
	</image>
</g>
<g>
	
		<image overflow="visible" width="379" height="408" xlink:href="27276357.png"  transform="matrix(0.24 0 0 0.24 267.3623 457.5322)">
	</image>
</g>
<g>
	
		<image overflow="visible" width="410" height="374" xlink:href="27276352.png"  transform="matrix(0.24 0 0 0.24 217.1265 410.165)">
	</image>
</g>
<g>
	
		<image overflow="visible" width="416" height="362" xlink:href="2727635F.png"  transform="matrix(0.24 0 0 0.24 170.416 420.5586)">
	</image>
</g>
<g>
	<image overflow="visible" width="414" height="368" xlink:href="2727635C.png"  transform="matrix(0.24 0 0 0.24 190 462.3721)">
	</image>
</g>
<g>
	
		<image overflow="visible" width="361" height="415" xlink:href="27276348.png"  transform="matrix(0.24 0 0 0.24 158.603 448.6826)">
	</image>
</g>
<g>
	
		<image overflow="visible" width="415" height="360" xlink:href="272763BC.png"  transform="matrix(0.24 0 0 0.24 81.498 405.5713)">
	</image>
</g>
<g>
	
		<image overflow="visible" width="415" height="360" xlink:href="272763BF.png"  transform="matrix(0.24 0 0 0.24 159.3901 380.9385)">
	</image>
</g>
<g>
	
		<image overflow="visible" width="402" height="389" xlink:href="272763BD.png"  transform="matrix(0.24 0 0 0.24 121.5874 389.4883)">
	</image>
</g>
<g>
	
		<image overflow="visible" width="395" height="397" xlink:href="272763BB.png"  transform="matrix(0.24 0 0 0.24 147.2158 321.4219)">
	</image>
</g>
<g>
	
		<image overflow="visible" width="395" height="397" xlink:href="272763B4.png"  transform="matrix(0.24 0 0 0.24 107.0088 282.5508)">
	</image>
</g>
<g>
	
		<image overflow="visible" width="415" height="364" xlink:href="272763B7.png"  transform="matrix(0.24 0 0 0.24 116.0313 346.0205)">
	</image>
</g>
<g>
	
		<image overflow="visible" width="381" height="408" xlink:href="272763B5.png"  transform="matrix(0.24 0 0 0.24 70.2827 281.2915)">
	</image>
</g>
<g>
	
		<image overflow="visible" width="373" height="412" xlink:href="272763AB.png"  transform="matrix(0.24 0 0 0.24 61.6411 255.5903)">
	</image>
</g>
<g>
	
		<image overflow="visible" width="365" height="414" xlink:href="272763AC.png"  transform="matrix(0.24 0 0 0.24 97.3042 235.4985)">
	</image>
</g>
<g>
	
		<image overflow="visible" width="383" height="406" xlink:href="272763AF.png"  transform="matrix(0.24 0 0 0.24 112.8662 206.5356)">
	</image>
</g>
<g>
	
		<image overflow="visible" width="391" height="401" xlink:href="2727638B.png"  transform="matrix(0.24 0 0 0.24 41.3418 182.9351)">
	</image>
</g>
<g>
	
		<image overflow="visible" width="414" height="366" xlink:href="27276389.png"  transform="matrix(0.24 0 0 0.24 46.6592 123.8022)">
	</image>
</g>
<g>
	<image overflow="visible" width="405" height="385" xlink:href="2727638F.png"  transform="matrix(0.24 0 0 0.24 5.9175 92.6963)">
	</image>
</g>
<g>
	<image overflow="visible" width="414" height="360" xlink:href="2727638A.png"  transform="matrix(0.24 0 0 0.24 0 60.7031)">
	</image>
</g>
<g>
	
		<image overflow="visible" width="370" height="412" xlink:href="27276385.png"  transform="matrix(0.24 0 0 0.24 45.9917 31.5322)">
	</image>
</g>
<g>
	<image overflow="visible" width="370" height="412" xlink:href="27276386.png"  transform="matrix(0.24 0 0 0.24 35.5928 0)">
	</image>
</g>
<g>
	
		<image overflow="visible" width="397" height="395" xlink:href="27276387.png"  transform="matrix(0.24 0 0 0.24 72.1768 16.8506)">
	</image>
</g>
<g>
	<image overflow="visible" width="389" height="402" xlink:href="272763F9.png"  transform="matrix(0.24 0 0 0.24 63.7876 59.127)">
	</image>
</g>
<g>
	
		<image overflow="visible" width="362" height="416" xlink:href="272763FB.png"  transform="matrix(0.24 0 0 0.24 46.9521 73.2866)">
	</image>
</g>
<g>
	
		<image overflow="visible" width="374" height="410" xlink:href="272763FE.png"  transform="matrix(0.24 0 0 0.24 49.7563 147.4736)">
	</image>
</g>
<g>
	
		<image overflow="visible" width="410" height="377" xlink:href="272763E2.png"  transform="matrix(0.24 0 0 0.24 89.7847 176.5596)">
	</image>
</g>
<g>
	
		<image overflow="visible" width="411" height="376" xlink:href="272763E1.png"  transform="matrix(0.24 0 0 0.24 223.5039 449.2822)">
	</image>
</g>
<g>
	
		<image overflow="visible" width="413" height="370" xlink:href="272763DE.png"  transform="matrix(0.24 0 0 0.24 263.2866 491.1367)">
	</image>
</g>
<g>
	
		<image overflow="visible" width="397" height="395" xlink:href="272763A1.png"  transform="matrix(0.24 0 0 0.24 291.9414 543.6895)">
	</image>
</g>
<g>
	
		<image overflow="visible" width="595" height="618" xlink:href="272763A2.png"  transform="matrix(0.24 0 0 0.24 77.478 249.0615)">
	</image>
</g>
<g>
	<path fill="#006838" d="M279.995,121.246c-0.529,8.465-7.406,11.639-7.142,8.597c0.397-3.175,2.909-8.729,2.117-13.094
		c-0.794-3.835-2.911-7.407-6.217-10.316c-4.232-3.835-10.449-6.48-17.458-7.539c-5.159-0.793-10.713-0.793-16.003,0.132
		c-5.82,1.059-11.242,3.042-16.268,5.952c-11.506,6.745-19.838,17.855-24.071,32.271c-5.026,17.326-3.968,31.874,3.042,42.984
		c8.597,13.491,23.807,18.516,30.023,20.103c0.926,0.265,1.984,0.53,2.778,0.661c9.258,1.72,18.781,1.323,28.568-1.189
		c8.993-2.249,18.384-6.349,27.907-12.168c11.506-7.009,23.277-16.532,35.313-28.567c-1.587-2.381-2.91-5.159-4.1-8.068
		c-1.322-3.704-2.249-7.804-2.777-12.168c-0.927-7.406-0.133-13.093-0.133-13.358c1.322-11.507,6.084-21.426,14.152-29.626
		c6.348-6.48,14.813-11.903,25.129-16.136c16.4-6.613,32.271-7.803,34.388-8.068c0.397,0,0.661,0,1.058,0
		c1.19,0,5.423,0.265,4.894,5.952c-5.29,32.007-7.407,60.178-6.348,77.901c0.66-2.116,1.454-4.365,2.512-6.745
		c3.571-9.258,9.39-20.5,17.193-33.594l3.704-6.481c8.597-15.077,19.838-33.726,22.484-35.71c3.835-2.777,10.051-1.19,8.332,1.455
		c-0.794,1.189-17.062,21.823-28.039,38.884c-0.661,1.323-1.587,2.777-2.513,4.233c-7.671,12.829-13.358,23.938-16.93,32.932
		c-5.29,13.358-4.894,19.442-3.57,22.219c0,0.264,0.132,0.397,0.264,0.53c0.53,1.058,0,2.381-1.189,2.645
		c-1.72,0.264-3.439-0.53-3.439-0.53c-10.448-4.629-11.109-36.503-5.555-79.619c-9.125,12.961-31.742,44.042-54.623,65.468
		c0.529,0.529,1.19,1.19,1.719,1.719c5.952,5.554,14.152,8.597,24.469,8.861c3.306,0,7.274-1.852,9.654-2.249
		c2.249-0.397,0.662,4.365-5.026,4.895c-0.264,0-0.528,0-0.925,0c-0.661,0-1.322,0-2.116,0c-11.507,0-20.764-3.042-27.51-9.259
		c-0.661-0.661-1.455-1.455-2.116-2.248c-1.191,1.059-2.381,2.116-3.571,3.174c-10.978,10.581-21.823,19.046-32.403,25.526
		c-16.4,10.053-32.271,15.078-47.35,15.078c-4.1,0-8.2-0.396-12.3-1.19c-0.529,0-6.216-1.059-13.358-4.232
		c-4.365-1.852-8.333-4.232-11.771-6.878c-4.364-3.438-8.067-7.274-10.845-11.771c-7.803-12.3-8.994-27.907-3.438-46.688
		c9.919-33.726,38.752-45.233,61.369-41.662c8.067,1.323,14.945,4.232,19.97,8.729c5.158,4.629,7.936,10.449,8.068,16.797
		C279.995,120.32,279.995,120.849,279.995,121.246z M324.434,157.089c4.1-4.232,8.332-8.729,12.433-13.491
		c8.333-9.522,21.161-25.526,35.181-47.085c5.158-8.067,8.993-14.548,11.11-18.251c-7.407,0.265-26.585,1.852-41.794,11.507
		c-3.703,2.381-7.01,5.025-9.788,7.936c-7.67,7.803-12.167,17.194-13.358,28.04c0,0.132-0.793,5.687,0.132,12.829
		C318.879,143.862,320.466,150.873,324.434,157.089z"/>
	<path fill="#006838" d="M470.055,141.614c-0.265,0.397-5.952,8.729-13.489,17.062c-4.496,5.026-8.332,8.861-12.036,11.771
		c-3.704,2.909-6.349,4.629-11.508,5.423c-9.653,1.455-15.474-1.587-18.647-5.026c-7.274-7.67-0.925-21.69-0.925-21.69
		c6.083-13.624,19.442-28.568,27.907-23.542c0,0,10.447,5.422,1.85,19.574c-2.514,4.365-9.786,9.39-21.028,8.068
		c-1.323,3.438-3.571,11.109,0.661,15.078c0,0,2.777,2.645,7.672,2.512c5.686-0.132,10.846-4.232,10.846-4.232
		c3.835-2.91,7.405-6.216,11.77-10.977c7.274-8.069,13.094-16.533,13.094-16.666c0.794-1.058,2.115-1.322,3.175-0.528
		C470.453,139.101,470.849,140.557,470.055,141.614z M424.163,148.889c6.479,0.529,12.167-1.852,15.209-6.613
		c5.952-9.391,0.266-10.581,0.266-10.581C436.064,131.166,429.055,140.027,424.163,148.889z"/>
	<path fill="#006838" d="M515.817,141.614c-0.265,0.397-5.951,8.729-13.49,17.062c-4.496,5.026-8.332,8.861-12.035,11.771
		c-3.703,2.909-6.349,4.629-11.506,5.423c-9.656,1.455-15.476-1.587-18.649-5.026c-7.275-7.67-0.926-21.69-0.926-21.69
		c6.083-13.624,19.442-28.568,27.907-23.542c0,0,10.448,5.422,1.851,19.574c-2.513,4.365-9.786,9.39-21.028,8.068
		c-1.323,3.438-3.572,11.109,0.661,15.078c0,0,2.776,2.645,7.671,2.512c5.688-0.132,10.846-4.232,10.846-4.232
		c3.835-2.91,7.405-6.216,11.77-10.977c7.274-8.069,13.095-16.533,13.095-16.666c0.794-1.058,2.116-1.322,3.174-0.528
		C516.215,139.101,516.61,140.557,515.817,141.614z M469.923,148.889c6.481,0.529,12.167-1.852,15.21-6.613
		c5.952-9.391,0.265-10.581,0.265-10.581C481.828,131.166,474.817,140.027,469.923,148.889z"/>
	<path fill="#006838" d="M534.2,174.282c-4.496-2.381-5.817-6.877-6.083-11.374c-0.396,0.529-0.794,1.19-1.189,1.719
		c-2.778,3.571-5.556,6.348-7.937,8.2c-2.381,1.587-4.629,2.512-6.745,2.512c-0.397,0-0.926,0-1.455-0.131
		c-0.396-0.133-1.851-0.397-3.173-1.19c-3.044-1.852-7.143-6.084-5.423-15.872c2.513-14.681,20.367-38.619,30.684-32.535
		c0,0,3.175,1.454,4.233,6.613c0.527-1.059,1.056-2.248,1.719-3.439c9.391-18.648,20.896-38.62,24.202-44.307
		c0.529-1.058,1.588-1.587,2.646-1.587h3.968c2.778,0,4.497,2.91,3.043,5.291c-4.497,7.803-13.227,23.145-21.823,39.414
		c-5.423,10.184-9.258,19.045-11.771,26.055c0,0-4.365,12.697-1.19,17.061c3.968,0.794,10.845-4.232,19.176-14.019
		c7.144-8.333,12.962-17.458,12.962-17.591c0.794-1.058,2.117-1.455,3.307-0.661c1.06,0.661,1.324,1.983,0.661,3.174
		c-0.264,0.397-6.083,9.391-13.489,18.12c-8.861,10.581-16.137,15.739-21.823,15.739C536.053,175.473,534.2,174.282,534.2,174.282z
		 M523.224,161.718c1.19-1.455,2.248-2.91,3.175-4.232c2.248-4.893,9.521-25.13,4.76-25.791
		c-4.76-0.661-15.606,15.209-19.177,25.791c-3.439,10.184,0,12.961,0.396,13.226C514.891,170.579,518.859,167.405,523.224,161.718z"
		/>
	<path fill="#006838" d="M305.983,316.954c17.59,3.306,37.429-1.19,58.987-13.358c10.449-5.819,21.426-13.623,32.536-23.013
		c-2.116-0.793-4.1-1.852-6.084-3.042c-6.083-3.703-10.845-8.729-14.151-15.077c-3.704-7.407-5.159-16.136-4.232-25.261
		c0.926-8.597,3.968-17.194,8.598-24.204c3.703-5.555,8.464-10.184,13.754-13.226c5.688-3.307,12.036-4.761,18.516-4.232
		c9.788,0.662,17.857,4.629,23.809,11.772c3.702,4.364,6.743,9.919,8.861,16.532c0.528,1.587,1.058,3.174,1.454,4.894
		c4.1-5.026,8.465-10.449,12.962-16.4c5.025-6.481,8.992-12.036,11.639-15.872c1.983-3.306,3.439-5.687,4.365-7.142
		c0.528-0.926,1.585-1.587,2.644-1.587h4.63c3.834,0,6.216,4.232,4.365,7.539c-6.747,11.903-19.575,35.313-26.056,52.639
		c-3.439,9.523-5.556,16.665-6.481,21.955c1.587-1.058,3.175-2.38,4.629-3.703c1.853-1.984,3.704-6.481,5.027-8.465
		c1.454-1.984,4.099,3.438-0.266,7.539c-3.042,3.174-6.349,5.952-9.787,8.333c-0.793,7.671,1.19,10.977,3.571,12.432
		c0.66,0.265,1.323,0.529,1.983,0.661c3.968,0.794,10.845-4.232,19.046-14.02c7.142-8.464,12.961-17.458,13.093-17.59
		c0.662-1.058,2.117-1.455,3.174-0.661c1.06,0.661,1.456,1.984,0.663,3.174c-0.265,0.396-5.953,9.391-13.358,18.119
		c-8.994,10.581-16.137,15.739-21.823,15.739c-0.397,0-0.663,0-0.925-0.132c-0.663,0-2.382-0.264-4.63-1.19
		c-3.439-1.456-7.671-4.762-9.655-11.639c-4.364,1.984-8.86,3.572-13.622,4.629c-5.819,1.19-10.714,1.454-13.624,1.454
		c-1.851,0-3.041-0.132-3.306-0.132c-4.895-0.264-9.392-0.926-13.622-2.116c-12.169,10.449-23.94,18.914-35.314,25.394
		c-17.722,9.92-34.387,14.945-49.729,14.945c-4.232,0-8.465-0.396-12.433-1.19c-0.53,0-6.349-1.059-13.358-4.232
		c-4.365-1.852-8.332-4.233-11.771-6.878c-4.364-3.438-8.067-7.274-10.845-11.771c-7.803-12.3-8.994-27.907-3.439-46.688
		c9.787-33.726,38.752-45.233,61.368-41.662c7.936,1.324,14.813,4.232,19.839,8.729c5.291,4.629,8.067,10.448,8.067,16.929
		c0,0,0.133,0.794,0,1.324c-0.397,8.464-7.406,11.638-7.009,8.597c0.396-3.174,2.645-8.597,2.117-13.226
		c-0.927-3.704-2.911-7.275-6.217-10.184c-4.232-3.835-10.449-6.48-17.458-7.539c-5.158-0.793-10.713-0.793-16.004,0.132
		c-5.819,1.058-11.242,3.042-16.267,5.952c-11.506,6.745-19.839,17.855-24.072,32.271c-5.025,17.326-4.1,31.742,3.042,42.852
		c2.381,3.968,5.688,7.539,9.523,10.581c3.173,2.38,6.877,4.497,10.845,6.348c3.439,1.587,6.613,2.513,8.861,3.174
		C302.412,316.16,305.19,316.821,305.983,316.954z M399.887,278.599c6.613-5.688,13.49-12.168,20.368-19.046
		c6.216-6.348,14.682-15.342,24.468-26.98c-1.587-9.259-4.629-18.517-10.185-24.997c-5.422-5.688-12.433-8.861-20.764-9.391
		c-6.085-0.396-11.771,0.927-17.062,3.968c-4.894,2.778-9.39,7.01-12.829,12.3c-4.497,6.745-7.407,14.945-8.2,23.014
		c-0.927,8.729,0.528,16.929,3.967,23.806c3.042,5.82,7.406,10.581,13.226,14.02C394.994,276.615,397.375,277.673,399.887,278.599z
		 M446.178,275.952c-0.661-3.703-0.661-8.2,0.133-13.754c0.133-1.719,0.66-11.904-0.661-23.542
		c-6.614,7.671-14.021,15.871-22.088,24.071c-6.217,6.349-12.432,12.168-18.516,17.458c3.569,0.925,7.405,1.455,11.506,1.587
		c0.133,0,6.877,0.661,16.136-1.323C437.449,279.393,441.947,277.937,446.178,275.952z M449.219,234.424
		c0.398,2.248,0.662,4.629,0.927,7.01c0.266,1.455,0.266,2.777,0.396,4.1c2.911-8.729,6.085-17.062,9.391-24.336
		C456.758,225.166,453.187,229.662,449.219,234.424z"/>
	<path fill="#006838" d="M337.462,403.68c9.655-1.06,18.251-9.391,23.806-16.534c6.216-7.935,9.919-15.869,10.052-15.869
		c0.529-1.191,1.852-1.72,3.042-1.191c1.19,0.66,1.587,1.984,1.059,3.173c-0.132,0.265-3.968,8.334-10.449,16.665
		c-3.836,5.026-7.804,8.994-11.771,11.902c-5.158,3.837-10.184,5.952-15.342,6.35c-1.058,0.133-10.978,1.19-24.732-3.968
		c-7.142,11.242-17.194,21.955-28.7,19.573c0,0-1.719-0.263-3.704-1.188c-0.926-0.397-2.116-1.06-3.174-2.117
		c-2.249-1.852-4.761-5.423-4.365-11.903c0.265-5.952,3.438-10.978,8.597-13.887c3.174-1.852,7.01-2.645,10.978-2.513
		c3.438,0.132,6.877,1.057,10.449,2.513c4.498-8.861,7.936-16.93,7.936-16.93c5.554-12.432,9.654-23.145,12.961-32.006
		c-8.465,2.513-17.591,4.893-27.114,7.407c-42.719,10.978-90.994,23.41-95.624,56.475c0,0.072-0.551,3.928-0.063,8.684
		c0.407,3.958-2.616,2.854-2.858-1.895c-0.203-3.982,0.215-6.946,0.276-7.186c4.894-34.785,54.095-47.482,97.607-58.724
		c10.051-2.512,19.972-5.158,28.833-7.802c3.703-10.053,6.217-17.591,8.597-22.485c8.332-17.458,21.293-16.532,21.293-16.532
		s9.391-0.132,10.185,10.449c0.396,2.381,0,4.761-0.926,7.142c-0.926,2.645-2.381,4.364-2.646,4.761
		c-3.968,5.819-11.903,10.713-24.732,15.475c-0.132,0-0.132,0-0.132,0.132c-1.19,4.232-2.381,8.597-3.704,13.225
		c-3.307,10.979-4.629,16.533-8.862,26.982c0,0-3.306,8.729-8.729,18.385c6.348,2.248,11.771,3.042,15.606,3.438
		C331.114,403.68,334.949,403.811,337.462,403.68z M301.091,398.785c-2.911-1.19-5.819-1.852-8.465-1.982
		c-3.175-0.134-6.216,0.527-8.597,1.851c-3.703,2.116-5.951,5.82-6.216,10.184c-0.132,2.381,0.265,4.232,0.926,5.819
		c0.661,1.19,2.514,3.835,6.216,3.968C289.319,418.757,295.668,408.837,301.091,398.785z M337.594,338.475
		c10.317-3.967,18.119-8.464,21.955-14.02c0,0,0-0.132,0.132-0.132c0,0,1.323-1.587,2.248-4.1c0.662-1.851,0.927-3.703,0.794-5.422
		c-1.19-8.464-8.464-7.539-8.464-7.539C345.927,307.923,342.223,321.149,337.594,338.475z"/>
	<path fill="#006838" d="M409.282,373.523c-0.266,0.396-6.217,9.522-13.624,18.252c-8.993,10.714-16.268,15.871-21.955,15.871
		c-0.529,0-1.059,0-1.587-0.131c-1.058-0.134-2.646-0.53-4.497-1.457c-9.258-4.496-3.571-19.839-3.571-19.839
		c1.983-5.951,6.48-17.059,14.152-28.17c0.661-1.059,1.852-1.588,2.909-1.588h4.498c2.646,0,3.702,3.571,1.852,6.614
		c-5.688,8.994-22.22,37.959-14.417,39.942c3.968,0.528,10.846-4.496,19.046-14.152c7.273-8.597,13.228-17.722,13.228-17.854
		c0.66-1.059,2.114-1.454,3.172-0.661C409.544,371.011,409.942,372.333,409.282,373.523z M384.284,352.627c0,0-1.851-3.307,0-6.746
		c1.984-3.571,5.29-2.909,6.877-1.72c1.587,1.191,3.174,4.365-1.72,7.672c0,0-1.587,1.189-2.249,1.852
		C386.268,354.479,384.813,353.95,384.284,352.627z"/>
	<path fill="#006838" d="M469.458,428.278c-3.438,3.174-8.597,5.556-14.813,6.878c-5.29,1.058-11.241,1.323-17.986,0.926
		c-6.878-0.396-14.549-1.718-22.749-3.836c-7.273,12.962-14.681,21.56-22.087,25.395c-2.91,1.454-5.952,2.248-8.862,2.248
		c-1.851,0-3.703-0.264-5.422-0.794c-4.1-1.321-7.01-3.702-8.728-6.877c-1.588-2.908-1.985-6.48-0.927-10.052
		c0.927-2.776,2.645-5.687,5.026-8.067c2.645-2.646,5.819-4.629,9.654-6.084c5.027-1.984,12.829-3.702,23.807-2.115
		c4.762-9.523,8.729-19.178,11.374-26.056c-1.851,1.982-3.57,3.702-5.29,4.894c-2.38,1.587-4.497,2.514-6.612,2.514
		c-0.53,0-0.926,0-1.455-0.133s-1.852-0.396-3.175-1.19c-3.041-1.852-7.142-6.084-5.423-15.871
		c2.514-14.68,20.369-38.62,30.686-32.537c0,0,4.1,1.853,4.629,9.391c1.587-2.909,3.438-5.951,5.555-8.861
		c0.662-1.059,1.718-1.588,2.91-1.588h4.363c2.646,0,3.703,3.571,1.853,6.614c-5.688,8.994-21.956,37.561-14.152,39.544
		c3.968,0.663,10.846-4.363,18.912-13.887c7.274-8.465,13.095-17.59,13.095-17.723c0.66-1.059,2.116-1.454,3.174-0.661
		c1.19,0.661,1.455,1.983,0.794,3.174c-0.265,0.396-6.084,9.392-13.49,18.119c-8.861,10.581-16.136,15.739-21.823,15.739
		c-0.396,0-0.794-0.131-1.322-0.131c-0.926-0.133-2.909-0.529-4.894-1.456c-1.719,4.629-3.968,10.184-6.745,16.004
		c-1.058,2.116-2.117,4.231-3.042,6.216c14.681,3.703,27.642,4.63,37.43,2.645c3.835-0.793,7.141-2.116,9.787-3.703
		c4.628-3.175,6.877-8.465,8.992-10.845C474.75,413.862,477.13,421.932,469.458,428.278z M378.067,454.333
		c8.333,2.779,18.119-9.521,26.056-24.07c-2.249-0.265-4.231-0.396-6.217-0.396c-5.951,0-10.447,1.19-13.623,2.38
		c-6.083,2.382-10.581,6.614-11.903,11.243c-0.661,2.38-0.529,4.629,0.53,6.611C373.835,451.954,375.687,453.408,378.067,454.333z
		 M416.819,393.627c1.19-1.454,2.248-2.909,3.175-4.232c2.248-4.893,9.523-25.129,4.762-25.79
		c-4.762-0.661-15.608,15.21-19.31,25.79c-3.307,10.184,0.131,12.962,0.529,13.226C408.487,402.489,412.455,399.314,416.819,393.627
		z"/>
	<path fill="#006838" d="M496.44,371.936c-1.853,5.953-4.762,12.169-4.762,12.169c-3.439,7.937-7.01,17.855-2.779,18.913
		c3.969,0.528,10.848-4.496,19.048-14.152c7.274-8.597,13.093-17.722,13.093-17.854c0.793-1.059,2.117-1.454,3.307-0.661
		c1.059,0.661,1.322,1.983,0.66,3.174c-0.264,0.396-6.083,9.522-13.49,18.252c-9.125,10.714-16.268,15.871-21.953,15.871
		c-0.664,0-1.192,0-1.72-0.131c-0.927-0.134-2.646-0.53-4.496-1.457c-9.128-4.496-3.44-19.839-3.44-19.839s2.381-7.538,7.274-17.722
		c1.455-2.91,2.249-5.422,1.323-5.951c-0.266-0.265-0.794-0.132-1.06,0.132c-1.322,0.926-3.042,2.381-5.157,4.628
		c-3.438,3.837-7.275,9.126-11.507,15.739c-7.406,11.508-13.226,23.278-13.358,23.411c-0.397,0.794-1.19,1.321-1.983,1.321
		c-0.265,0-0.396-0.132-0.528-0.132c-11.242-0.661,11.639-46.952,11.639-46.952c9.258-18.649,20.896-38.62,24.203-44.307
		c0.528-1.058,1.586-1.587,2.646-1.587h3.967c2.778,0,4.497,2.91,3.042,5.291c-4.497,7.804-13.226,23.145-21.821,39.412
		c0,0-3.573,6.747-7.671,14.946c2.775-4.1,5.422-7.539,7.935-10.184c5.025-5.422,9.126-7.935,12.697-7.804c0,0,1.189,0,2.38,0.397
		C498.82,358.711,498.688,365.72,496.44,371.936z"/>
	<path fill="#006838" d="M518.66,406.192c-10.315-5.556-4.365-22.882-4.365-22.882c1.853-6.744,4.895-14.548,8.994-22.616
		c3.704-7.539,7.936-15.474,11.771-22.352h-11.108c-1.324,0-2.381-1.059-2.381-2.381c0-1.323,1.057-2.248,2.381-2.248h13.621
		c4.497-8.068,8.2-14.549,9.919-17.327c0.53-1.058,1.588-1.587,2.647-1.587h3.967c2.777,0,4.497,2.91,3.042,5.291
		c-1.852,3.439-4.63,8.068-7.672,13.623h18.914c1.322,0,2.382,0.925,2.382,2.248c0,1.322-1.06,2.381-2.382,2.381h-21.559
		c-3.57,6.349-7.538,13.623-11.507,21.16c-5.422,10.186-9.258,19.046-11.771,26.057c0,0-4.364,12.697-1.19,17.061
		c3.967,0.794,10.846-4.231,19.178-14.019c7.142-8.333,12.961-17.458,12.961-17.591c0.662-1.059,2.117-1.454,3.175-0.661
		c1.19,0.661,1.455,1.983,0.793,3.174c-0.265,0.396-6.083,9.392-13.489,18.119c-8.862,10.581-16.138,15.739-21.823,15.739
		c-0.926,0-1.72-0.264-2.646-0.396C519.717,406.722,518.66,406.192,518.66,406.192z"/>
</g>
</svg>
