<?xml version="1.0" encoding="utf-8"?>
<!-- Generator: Adobe Illustrator 16.0.0, SVG Export Plug-In . SVG Version: 6.00 Build 0)  -->
<!DOCTYPE svg PUBLIC "-//W3C//DTD SVG 1.1//EN" "http://www.w3.org/Graphics/SVG/1.1/DTD/svg11.dtd">
<svg version="1.1" id="Layer_1" xmlns="http://www.w3.org/2000/svg" xmlns:xlink="http://www.w3.org/1999/xlink" x="0px" y="0px"
	 width="218.741px" height="220.86px" viewBox="0 0 218.741 220.86" enable-background="new 0 0 218.741 220.86"
	 xml:space="preserve">
<g>
	<circle fill="#FFFFFF" cx="29.886" cy="29.886" r="29.886"/>
	<path fill="#FFFFFF" d="M52.971,213.313c0,3.954-3.205,7.157-7.158,7.157H13.958c-3.953,0-7.158-3.203-7.158-7.157V80.171
		c0-3.953,3.205-7.158,7.158-7.158h31.854c3.953,0,7.158,3.205,7.158,7.158V213.313z"/>
	<path fill="#FFFFFF" d="M204.534,86.354c-6.49-5.944-16.153-15.461-39.927-15.458c-23.354,0.003-34.812,7.291-41.498,17.635
		c-0.872,0.876-1.639,1.995-2.315,3.302V80.171c0-3.953-3.204-7.158-7.157-7.158H81.783c-3.953,0-7.159,3.205-7.159,7.158v133.142
		c0,3.954,3.206,7.157,7.159,7.157h31.854c3.953,0,7.157-3.203,7.157-7.157v-75.757l0.3-4.862
		c0.842-12.467,12.312-22.233,25.351-22.233c13.046,0,23.69,9.876,24.524,22.354h0.081v11.529v72.017
		c0,2.483,3.312,4.499,7.394,4.499h32.904c4.083,0,7.394-2.016,7.394-4.499V132.66v-0.95
		C218.365,108.289,209.616,91.147,204.534,86.354z"/>
</g>
</svg>
