<?xml version="1.0" encoding="utf-8"?>
<!-- Generator: Adobe Illustrator 16.0.0, SVG Export Plug-In . SVG Version: 6.00 Build 0)  -->
<!DOCTYPE svg PUBLIC "-//W3C//DTD SVG 1.1//EN" "http://www.w3.org/Graphics/SVG/1.1/DTD/svg11.dtd">
<svg version="1.1" id="Layer_1" xmlns="http://www.w3.org/2000/svg" xmlns:xlink="http://www.w3.org/1999/xlink" x="0px" y="0px"
	 width="300.984px" height="270.142px" viewBox="0 0 300.984 270.142" enable-background="new 0 0 300.984 270.142"
	 xml:space="preserve">
<path d="M300.984,264.824c0,2.937-2.38,5.317-5.317,5.317H5.318c-2.937,0-5.318-2.381-5.318-5.317V5.317C0,2.381,2.381,0,5.318,0
	h290.349c2.938,0,5.317,2.381,5.317,5.317V264.824z"/>
<g>
	<circle fill="#FFFFFF" cx="71.007" cy="54.526" r="29.886"/>
	<path fill="#FFFFFF" d="M94.092,237.954c0,3.954-3.205,7.157-7.158,7.157H55.08c-3.953,0-7.158-3.203-7.158-7.157V104.813
		c0-3.953,3.205-7.158,7.158-7.158h31.854c3.953,0,7.158,3.205,7.158,7.158V237.954z"/>
	<path fill="#FFFFFF" d="M245.656,110.994c-6.49-5.943-16.154-15.461-39.928-15.457c-23.354,0.003-34.811,7.291-41.498,17.635
		c-0.871,0.877-1.639,1.995-2.314,3.303v-11.662c0-3.953-3.205-7.158-7.158-7.158h-31.854c-3.953,0-7.159,3.205-7.159,7.158v133.142
		c0,3.954,3.206,7.157,7.159,7.157h31.854c3.953,0,7.158-3.203,7.158-7.157v-75.757l0.299-4.862
		c0.842-12.467,12.313-22.233,25.352-22.233c13.045,0,23.689,9.876,24.523,22.354h0.082v11.529v72.017
		c0,2.483,3.311,4.499,7.393,4.499h32.904c4.084,0,7.395-2.016,7.395-4.499v-83.701v-0.95
		C259.486,132.93,250.738,115.788,245.656,110.994z"/>
</g>
</svg>
