<?xml version="1.0" encoding="utf-8"?>
<!-- Generator: Adobe Illustrator 16.0.0, SVG Export Plug-In . SVG Version: 6.00 Build 0)  -->
<!DOCTYPE svg PUBLIC "-//W3C//DTD SVG 1.1//EN" "http://www.w3.org/Graphics/SVG/1.1/DTD/svg11.dtd">
<svg version="1.1" xmlns="http://www.w3.org/2000/svg" xmlns:xlink="http://www.w3.org/1999/xlink" x="0px" y="0px" width="707px"
	 height="707px" viewBox="0 0 707 707" enable-background="new 0 0 707 707" xml:space="preserve">
<g id="Layer_1">
	<path fill="#4C81AC" d="M353.5,707c-47.718,0-94.014-9.348-137.602-27.784c-42.095-17.805-79.899-43.292-112.361-75.754
		c-32.461-32.461-57.949-70.265-75.754-112.36C9.348,447.514,0,401.218,0,353.5s9.348-94.014,27.784-137.602
		c17.805-42.095,43.292-79.899,75.754-112.361s70.266-57.949,112.361-75.754C259.486,9.348,305.782,0,353.5,0
		s94.014,9.348,137.602,27.784c42.096,17.805,79.899,43.292,112.36,75.754c32.462,32.461,57.949,70.266,75.754,112.361
		C697.652,259.486,707,305.782,707,353.5s-9.348,94.014-27.784,137.602c-17.805,42.096-43.292,79.899-75.754,112.36
		c-32.461,32.462-70.265,57.949-112.36,75.754C447.514,697.652,401.218,707,353.5,707z M353.5,20C169.607,20,20,169.607,20,353.5
		S169.607,687,353.5,687S687,537.393,687,353.5S537.393,20,353.5,20z"/>
	<rect x="28.528" y="348.863" fill="#4C81AC" width="40.981" height="9.251"/>
	
		<rect x="73.033" y="501.722" transform="matrix(0.8624 -0.5063 0.5063 0.8624 -243.4781 117.0352)" fill="#4C81AC" width="40.982" height="9.251"/>
	
		<rect x="185.673" y="612.46" transform="matrix(0.4876 -0.8731 0.8731 0.4876 -433.1186 496.1884)" fill="#4C81AC" width="40.981" height="9.251"/>
	
		<rect x="333.009" y="656.377" transform="matrix(-0.0212 -0.9998 0.9998 -0.0212 -299.8478 1028.4563)" fill="#4C81AC" width="40.981" height="9.25"/>
	
		<rect x="62.192" y="204.785" transform="matrix(-0.8831 -0.4692 0.4692 -0.8831 57.435 433.1334)" fill="#4C81AC" width="40.982" height="9.251"/>
	
		<rect x="478.677" y="83.988" transform="matrix(-0.4507 0.8927 -0.8927 -0.4507 803.2488 -317.0423)" fill="#4C81AC" width="40.981" height="9.249"/>
	
		<rect x="174.779" y="91.404" transform="matrix(0.5253 0.8509 -0.8509 0.5253 174.4068 -120.5745)" fill="#4C81AC" width="40.984" height="9.251"/>
	
		<rect x="639.007" y="349.376" transform="matrix(1 -0.0077 0.0077 1 -2.7219 5.1183)" fill="#4C81AC" width="40.98" height="9.251"/>
	
		<rect x="596.01" y="193.224" transform="matrix(0.8438 -0.5367 0.5367 0.8438 -9.8792 361.7579)" fill="#4C81AC" width="40.98" height="9.251"/>
	
		<rect x="495.374" y="604.787" transform="matrix(0.4989 0.8667 -0.8667 0.4989 786.6937 -141.6881)" fill="#4C81AC" width="40.981" height="9.249"/>
	
		<rect x="602.843" y="487.359" transform="matrix(0.9019 0.4319 -0.4319 0.9019 273.6061 -220.9557)" fill="#4C81AC" width="40.98" height="9.25"/>
</g>
<g id="Layer_2">
	<path fill="#4C81AC" d="M469.178,280.737l65.658-70.068l-6.061-5.936l-62.689,64.817c-0.096,0.105-0.188,0.212-0.287,0.315
		c-0.068,0.07-0.141,0.132-0.209,0.199l-1.037,1.071l-0.117-0.116c-2.225,1.559-4.725,1.844-6.072,0.525
		c-1.346-1.319-1.113-3.825,0.4-6.08l-0.119-0.116l1.049-1.058c0.066-0.07,0.127-0.143,0.195-0.213
		c0.102-0.103,0.207-0.198,0.311-0.295l63.502-64.019l-6.557-6.422l-62.688,64.817c-0.096,0.105-0.189,0.211-0.291,0.314
		c-0.068,0.07-0.141,0.133-0.209,0.2l-1.035,1.071l-0.119-0.116c-2.223,1.559-4.723,1.844-6.07,0.526
		c-1.346-1.32-1.113-3.826,0.398-6.082l-0.117-0.115l1.049-1.059c0.064-0.07,0.127-0.143,0.195-0.212
		c0.102-0.103,0.207-0.197,0.309-0.295l63.504-64.019l-6.557-6.423l-62.689,64.817c-0.096,0.105-0.188,0.211-0.289,0.314
		c-0.068,0.07-0.139,0.133-0.209,0.199l-1.035,1.072l-0.117-0.116c-2.225,1.558-4.727,1.844-6.072,0.525
		c-1.346-1.319-1.113-3.825,0.398-6.081l-0.117-0.116l1.049-1.058c0.066-0.07,0.127-0.143,0.195-0.213
		c0.102-0.104,0.207-0.198,0.309-0.295l63.504-64.019l-7.07-6.927l-69.199,66.601c-4.205,4.294-8.969,21.417-1.887,35.226
		l-96.338,95.458c-0.119,0.098-0.241,0.193-0.35,0.305c-0.074,0.076-0.134,0.162-0.202,0.24l-1.148,1.139l0.303,0.297
		c-1.112,2.963,0.316,7.33,3.773,10.715c3.458,3.387,7.854,4.725,10.793,3.551l0.303,0.297l1.113-1.172
		c0.078-0.068,0.164-0.131,0.238-0.205c0.107-0.113,0.201-0.236,0.297-0.357l93.168-98.008
		C448.08,291.543,464.85,285.155,469.178,280.737z"/>
	<path fill="#4C81AC" d="M361.423,382.898L359.411,202c5.838-0.25,20.363,2.845,23.919-8.078C381.225,70.5,343.031,33,343.031,33
		v169h0.022l-2.01,180.899c-0.016,0.199-0.035,0.398-0.035,0.602c0,0.137,0.016,0.27,0.023,0.404L341.009,386h0.408
		c1.232,3.752,5.156,6.5,9.817,6.5c4.66,0,8.584-2.748,9.814-6.5h0.409l-0.023-2.096c0.007-0.135,0.023-0.268,0.023-0.404
		C361.457,383.297,361.438,383.098,361.423,382.898z"/>
</g>
</svg>
