<?xml version="1.0" encoding="utf-8"?>
<!-- Generator: Adobe Illustrator 16.0.0, SVG Export Plug-In . SVG Version: 6.00 Build 0)  -->
<!DOCTYPE svg PUBLIC "-//W3C//DTD SVG 1.1//EN" "http://www.w3.org/Graphics/SVG/1.1/DTD/svg11.dtd">
<svg version="1.1" xmlns="http://www.w3.org/2000/svg" xmlns:xlink="http://www.w3.org/1999/xlink" x="0px" y="0px"
	 width="513.136px" height="607.152px" viewBox="0 0 513.136 607.152" enable-background="new 0 0 513.136 607.152"
	 xml:space="preserve">
<g id="Layer_2" display="none">
	
		<image display="inline" overflow="visible" width="216" height="233" xlink:href="../../Downloads/download (1).png"  transform="matrix(1 0 0 1 107.0835 170.9912)">
	</image>
</g>
<g id="Layer_1">
	<g>
		<path d="M376.873,133.676c0.055-24.812-2.624-44.222-3.578-51.588c-1.693-17.299-9.282-27.709-9.282-27.709l-0.008,0.016
			C348.042,22.689,305.462,0,255.423,0c-50.632,0-93.611,23.229-109.125,55.531l-0.007-0.024c0,0-5.859,9.281-7.555,26.581
			c-0.954,7.366-2.833,26.776-2.777,51.588c-8.286,5.632-14.229,20.706-14.229,38.474c0,22.57,9.578,40.871,21.392,40.871
			c0.209,0,0.414-0.048,0.62-0.063c12.329,57.16,42.556,111.096,112.32,111.975l-0.007,0.025c0.123-0.005,0.237-0.013,0.361-0.017
			c0.123,0.004,0.238,0.012,0.361,0.017l-0.01-0.025c69.763-0.873,99.993-54.815,112.32-111.975c0.207,0.015,0.414,0.063,0.62,0.063
			c11.813,0,21.394-18.301,21.394-40.871C391.103,154.382,385.16,139.309,376.873,133.676z"/>
		<path d="M457.939,369.732c-71.232-4.07-119.06-44.773-119.06-44.773L287.661,432.53l-2.385,0.009l-13.708-33.054l16.801-31.508
			c5.271-9.877,0.425-17.986-10.769-17.986h-40.233c-11.193,0-16.039,8.109-10.769,17.983l17.183,32.202l-13.418,32.364l-5.13-0.014
			l-51.218-107.571c0,0-47.827,40.704-119.06,44.775S2.139,478.699,2.139,484.125c0,5.422,95.893,119.104,254.64,123.027
			c158.747-3.923,254.306-117.604,254.306-123.027C511.084,478.698,529.171,373.804,457.939,369.732z"/>
	</g>
</g>
</svg>
