<?xml version="1.0" encoding="utf-8"?>
<!-- Generator: Adobe Illustrator 16.0.0, SVG Export Plug-In . SVG Version: 6.00 Build 0)  -->
<!DOCTYPE svg PUBLIC "-//W3C//DTD SVG 1.1//EN" "http://www.w3.org/Graphics/SVG/1.1/DTD/svg11.dtd">
<svg version="1.1" id="Layer_1" xmlns="http://www.w3.org/2000/svg" xmlns:xlink="http://www.w3.org/1999/xlink" x="0px" y="0px"
	 width="147.957px" height="39.965px" viewBox="0 0 147.957 39.965" enable-background="new 0 0 147.957 39.965"
	 xml:space="preserve">
<g>
	<path d="M4.87,9.627c0-1.357-0.559-2.436-2.076-2.436H0.958V5.954h12.294c5.708,0,11.935,0.998,11.935,7.265
		c0,2.355-0.998,4.312-2.954,5.748c-2.076,1.478-5.469,2.235-10.179,2.235H6.866v10.419c0,2.035,1.557,2.235,2.235,2.235h1.756
		v1.237H0.918v-1.237h2.076c1.078,0,1.876-0.799,1.876-2.235V9.627z M12.055,19.965c3.553,0,11.097-0.319,11.097-6.746
		c0-1.836-0.798-3.353-2.395-4.55c-1.477-0.958-3.952-1.478-7.504-1.478H9.78c-2.235,0-2.914,0.599-2.914,2.436v10.338H12.055z"/>
	<path d="M30.701,20.005c0-0.838-0.599-1.078-3.193-1.078v-1.237c1.477,0,3.233-0.519,5.229-1.477v3.912
		c0.719-0.998,2.954-3.912,6.307-3.912c1.357,0,3.074,0.279,3.074,2.275c0,0.758-0.559,1.197-1.357,1.197
		c-0.679,0-1.197-0.279-1.597-0.798c-0.399-0.52-0.918-0.719-1.637-0.719c-1.796,0-3.513,1.637-4.79,4.511v9.54
		c0,1.277,0.319,1.637,1.477,1.637h1.477v1.237h-8.103v-1.237c2.315,0,3.113,0,3.113-1.637V20.005z"/>
	<path d="M52.697,35.932c-6.666,0-9.061-5.668-9.061-9.939c0-7.664,5.469-10.378,9.061-10.378c4.551,0,8.822,3.393,8.822,10.378
		C61.519,30.423,59.004,35.932,52.697,35.932z M57.448,19.087c-1.238-1.438-2.834-2.195-4.75-2.195
		c-1.956,0-3.592,0.758-4.949,2.235c-1.277,1.437-1.876,3.752-1.876,6.865c0,2.914,1.078,8.662,6.826,8.662
		c5.229,0,6.547-5.309,6.547-8.662C59.244,22.839,58.645,20.523,57.448,19.087z"/>
	<path d="M68.588,20.125c0-0.958-0.838-1.038-3.034-1.118V17.77c1.437,0,3.153-0.519,5.069-1.557v15.049
		c0,3.153-0.599,5.349-1.716,6.546c-1.038,1.078-2.395,1.637-4.151,1.637c-1.557,0-2.994-0.878-2.994-2.115
		c0-0.759,0.479-1.357,1.277-1.357c0.838,0,1.477,0.319,1.996,0.878c0.519,0.52,1.038,0.799,1.597,0.799
		c1.756,0,1.956-0.839,1.956-3.792V20.125z M71.422,7.392c0,1.077-0.878,1.836-1.876,1.836c-1.038,0-1.717-0.759-1.717-1.836
		c0-1.238,0.918-1.757,1.717-1.757C70.703,5.635,71.422,6.394,71.422,7.392z"/>
	<path d="M79.847,25.114v0.918c0,4.431,3.073,8.582,7.105,8.582c3.074,0,4.79-2.075,6.626-4.59l1.038,0.718
		c-3.153,4.032-4.83,5.109-8.063,5.109c-6.147,0-8.742-5.429-8.742-9.819c0-6.267,4.151-10.299,8.343-10.299
		c4.391,0,8.023,3.753,8.023,9.381H79.847z M92.101,23.877c-0.16-2.355-0.719-4.111-1.796-5.229
		c-1.038-1.117-2.395-1.676-4.151-1.676c-3.034,0-5.628,2.834-6.227,6.905H92.101z"/>
	<path d="M114.337,30.703c-2.354,3.592-4.59,5.188-7.823,5.188c-5.429,0-8.981-4.23-8.981-10.259c0-6.506,4.87-9.859,9.62-9.859
		c2.993,0,6.427,2.076,6.427,5.389c0,0.52-0.319,1.158-1.317,1.158c-0.599,0-1.277-0.359-1.277-1.197
		c0.04-0.16,0.12-0.998,0.159-1.198c0-0.998-1.316-2.914-3.991-2.914c-3.394,0-7.345,2.835-7.345,7.983
		c0,8.224,5.309,9.461,7.225,9.461c2.555,0,4.231-1.517,6.268-4.471L114.337,30.703z"/>
	<path d="M122.365,30.184c0,2.396,0.199,3.952,2.434,3.952c1.039,0,2.396-0.878,3.992-2.675l0.879,0.839
		c-1.957,2.075-3.033,3.073-5.43,3.073c-3.232,0-3.911-2.754-3.911-5.189V17.85h-3.632v-1.237c3.711,0,4.55-2.476,4.55-8.463h1.118
		v8.463h5.549v1.237h-5.549V30.184z"/>
	<path d="M132.425,29.386c0.998,1.916,2.117,3.233,3.473,3.951c1.357,0.839,2.795,1.237,4.152,1.237
		c2.234,0,4.311-1.356,4.311-3.672c0-2.754-1.836-3.792-4.59-4.551c-3.154-0.758-5.189-1.557-6.027-2.555
		c-0.76-0.798-1.158-1.916-1.158-3.193c0-1.996,2.035-4.75,5.748-4.75c1.518,0,2.953,0.399,4.271,1.157l0.838-0.918h0.398
		l2.037,5.27h-0.76c-1.516-2.436-3.352-4.271-6.785-4.271c-2.555,0-3.912,1.677-3.912,3.513c0,2.076,1.477,2.874,5.35,3.713
		c3.791,0.997,6.426,2.075,6.426,6.267c0,2.475-2.115,5.229-6.146,5.229c-1.557,0-3.234-0.56-4.99-1.677l-0.998,1.077h-0.639
		l-1.676-5.628L132.425,29.386z"/>
</g>
</svg>
