<?xml version="1.0" encoding="utf-8"?>
<!-- Generator: Adobe Illustrator 16.0.0, SVG Export Plug-In . SVG Version: 6.00 Build 0)  -->
<!DOCTYPE svg PUBLIC "-//W3C//DTD SVG 1.1//EN" "http://www.w3.org/Graphics/SVG/1.1/DTD/svg11.dtd">
<svg version="1.1" xmlns="http://www.w3.org/2000/svg" xmlns:xlink="http://www.w3.org/1999/xlink" x="0px" y="0px"
	 width="230.188px" height="282.263px" viewBox="0 0 230.188 282.263" enable-background="new 0 0 230.188 282.263"
	 xml:space="preserve">
<g id="Layer_1" display="none">
	
		<image display="inline" overflow="visible" width="370" height="456" xlink:href="../../Downloads/RedditIcon.png"  transform="matrix(0.6188 0 0 0.6188 0.793 0.0732)">
	</image>
</g>
<g id="Layer_2">
	<polyline fill="none" stroke="#000000" stroke-width="6" stroke-miterlimit="10" points="171.75,17.433 129.75,3.683 110.5,45.516 
			"/>
	<circle fill="#FFFFFF" stroke="#000000" stroke-width="6" stroke-miterlimit="10" cx="186.75" cy="28.433" r="18"/>
	<path fill="#FFFFFF" stroke="#000000" stroke-width="6" stroke-miterlimit="10" d="M20.067,94.988C13.453,91.171,9,84.025,9,75.839
		c0-12.202,9.892-22.094,22.094-22.094c7.906,0,14.843,4.153,18.746,10.396"/>
	<path fill="#FFFFFF" stroke="#000000" stroke-width="6" stroke-miterlimit="10" d="M187.026,70.12
		c4-5.67,10.602-9.375,18.067-9.375c12.201,0,22.094,9.892,22.094,22.094c0,10.164-6.864,18.726-16.211,21.301"/>
	<path fill="#FFFFFF" stroke="#000000" stroke-width="6" stroke-miterlimit="10" d="M30.687,150.744
		c-9.773-10.526-15.437-23.026-15.437-36.434c0-37.487,44.268-67.877,98.875-67.877c54.607,0,98.875,30.39,98.875,67.877
		c0,19.636-12.146,37.326-31.564,49.719"/>
	<circle fill="#F0542B" cx="76.875" cy="102.308" r="17.125"/>
	<circle fill="#F0542B" cx="150.875" cy="102.308" r="17.125"/>
	<path fill="none" stroke="#000000" stroke-width="6" stroke-miterlimit="10" d="M29.5,175.433"/>
	<polyline fill="#FFFFFF" stroke="#000000" stroke-width="6" stroke-miterlimit="10" points="182.5,195.433 182.5,278.433 
		29.5,278.433 29.5,195.433 	"/>
	<polyline fill="#FFFFFF" stroke="#000000" stroke-width="6" stroke-miterlimit="10" points="29.5,220.433 29.5,118.433 
		182.5,118.433 182.5,220.433 	"/>
	
		<ellipse fill="#FFFFFF" stroke="#000000" stroke-width="6" stroke-miterlimit="10" cx="182.094" cy="204.308" rx="25.094" ry="29.375"/>
	<path fill="#FFFFFF" stroke="#000000" stroke-width="6" stroke-miterlimit="10" d="M30.637,175.082
		c12.665,1.491,22.55,14.007,22.55,29.226c0,16.224-11.234,29.375-25.094,29.375S3,220.531,3,204.308s11.234-29.375,25.094-29.375
		C28.952,174.933,29.801,174.983,30.637,175.082"/>
</g>
</svg>
