<?xml version="1.0" encoding="utf-8"?>
<!-- Generator: Adobe Illustrator 16.0.0, SVG Export Plug-In . SVG Version: 6.00 Build 0)  -->
<!DOCTYPE svg PUBLIC "-//W3C//DTD SVG 1.1//EN" "http://www.w3.org/Graphics/SVG/1.1/DTD/svg11.dtd">
<svg version="1.1" id="Layer_1" xmlns="http://www.w3.org/2000/svg" xmlns:xlink="http://www.w3.org/1999/xlink" x="0px" y="0px"
	 width="591.76px" height="591.756px" viewBox="0 0 591.76 591.756" enable-background="new 0 0 591.76 591.756"
	 xml:space="preserve">
<path d="M295.88,0C132.486,0,0,132.459,0,295.882c0,163.408,132.486,295.874,295.88,295.874
	c163.403,0,295.88-132.466,295.88-295.874C591.76,132.459,459.283,0,295.88,0z M295.885,539.53
	c-134.325,0-243.648-109.303-243.648-243.651c0-134.352,109.324-243.639,243.648-243.639c134.367,0,243.658,109.287,243.658,243.639
	C539.543,430.227,430.252,539.53,295.885,539.53z"/>
<path d="M295.859,81.299c-118.328,0-214.588,96.263-214.588,214.577c0,118.331,96.26,214.58,214.588,214.58
	c118.313,0,214.629-96.249,214.629-214.58C510.488,177.562,414.172,81.299,295.859,81.299z M444.683,432.533l-0.278,3.147
	l-2.337,1.563c-38.86,39.643-90.759,59.84-146.178,59.84c0,0-0.096,0-0.138,0c-28.093,0-55.315-3.936-80.849-14.988l-11.339-4.086
	L312.482,354.65c0.852-0.936,0.211-1.689,0.211-2.892v-41.907c0-2.728-1.186-5.019-3.933-5.019
	c-53.23,0-107.16-53.779-107.692-54.328c-0.979-1.004-1.673-1.421-3.006-1.421h-55.873c-2.764,0-10.496,2.104-10.496,4.871v83.822
	c0,1.923,4.121,3.64,5.735,4.457l56.265,26.608V473.58l-14.376-9.82c-54.876-38.264-87.845-101.031-87.845-167.883
	c0-30.772,6.542-58.777,19.636-86.191l2.319-3.602h56.715c1.297,0,2.565-2.021,3.451-2.963l54.807-56.633
	c0.916-0.942,0.294-2.949,0.294-4.298v-40.535l7.604-1.885c49.298-14.531,102.974-10.105,148.587,12.187l12.553,5.997l-10.26,8.868
	c-1.602,1.369-3.095,2.844-4.642,4.347c-14.104,14.083-21.849,32.891-21.849,52.911c0,20.062,7.811,38.843,21.939,52.911
	c14.787,14.854,35.739,23.02,56.477,21.863l7.33-0.456l1.901,7.079C454.305,287.913,465.894,349.057,444.683,432.533z"/>
</svg>
